<mxfile host="app.diagrams.net" agent="Mozilla/5.0 (Windows NT 10.0; Win64; x64) AppleWebKit/537.36 (KHTML, like Gecko) Chrome/134.0.0.0 Safari/537.36" version="26.2.4">
  <diagram name="Page-1" id="7ymDvXtA5jYd8moxUMYG">
    <mxGraphModel dx="2172" dy="508" grid="1" gridSize="10" guides="1" tooltips="1" connect="1" arrows="1" fold="1" page="1" pageScale="1" pageWidth="850" pageHeight="1100" math="0" shadow="0">
      <root>
        <mxCell id="0" />
        <mxCell id="1" parent="0" />
        <mxCell id="sHLZ-SZ676Q3P7wnUCrE-118" value="" style="rounded=1;whiteSpace=wrap;html=1;fillColor=#eeeeee;strokeColor=none;" parent="1" vertex="1">
          <mxGeometry x="-780" y="120" width="360" height="170" as="geometry" />
        </mxCell>
        <mxCell id="sHLZ-SZ676Q3P7wnUCrE-193" value="" style="shape=stencil(nVPBbsMgDP0ajkNgjzU7Tun2H6ylC1oKEaFt9vcjMZ2alkzdLC4828/m2TCs+0Z3hoHQfWc2keGaARx1sPq9TTAkT0MgcgWrZBWhJ0JBcvk0GqF9DP7TnOw25izrGhNsHL34ysRLihkP1hvvXCpovetnngt/ItPWpVwxEJmgIl90k3TrEv/eRBNmKIO3u2nl/2mxTsjSU7De+WA+gj+4bbGZnW1bUuyXjjs9annjOLv3/mguFOJzja6GVq7xo80hEJekZMXheRyuypSyyDlAOTrDwFFIEI/KPIi8JANmTQVXFSbLGbiY8be+peLV6qrpUhtQCIfyG7G47eeO71J5WpWFYaZvuLQGU9rNHk0ofd0J+AY=);whiteSpace=wrap;html=1;fillColor=#e3c800;strokeColor=#B09500;strokeWidth=10;rotation=90;fontColor=#000000;" parent="1" vertex="1">
          <mxGeometry x="-470" y="215" width="60" height="10" as="geometry" />
        </mxCell>
        <mxCell id="sHLZ-SZ676Q3P7wnUCrE-119" value="" style="rounded=1;whiteSpace=wrap;html=1;fillColor=#eeeeee;strokeColor=none;" parent="1" vertex="1">
          <mxGeometry x="-410" y="120" width="150" height="170" as="geometry" />
        </mxCell>
        <mxCell id="sHLZ-SZ676Q3P7wnUCrE-78" value="" style="shape=stencil(nVRbcoMwDDwNn/HIEn7w2SHtPWjiNJ4Swxjyun0NhmncJG0Tj39YSavVA2dUdtuqNRlC1bVm1We0zBAPlbfVex1gDJZtBDkwoYkogscIomY4HB7RrvfNpznadT8FWbc13vaDlV4zeAk+w6Vy1TgX8tnGdYnlwh7IKutCLJwiGcQk50lP/GoD/870xidohm//puUJLTxCS2VA7pVC5abx5sM3e7e+KWZj6zp27BfFbTX08sowm3fNwXyXolkhc60LMgtQabeS6d1ONnPW1l1w5kwBKZDF03yrvY8ieYxVTHIFKKfgM79FecIUnZ1xrlTzIic1VXmiyTtnPBzCyXuCBcOCSymeUcuDXNIF5D/UMhVgVYhULgJTKEDwVO4CGISKpaBULxITXAuuUr3B+/FBzf8iJYP6g2rc4Ds7Fh6He9s5hl2t94jGB2UEvgA=);whiteSpace=wrap;html=1;strokeWidth=10;strokeColor=#001DBC;fillColor=#0050ef;flipV=1;fontColor=#ffffff;" parent="1" vertex="1">
          <mxGeometry x="-450" y="225" width="80" height="30" as="geometry" />
        </mxCell>
        <mxCell id="sHLZ-SZ676Q3P7wnUCrE-207" value="" style="rounded=1;whiteSpace=wrap;html=1;fillColor=#eeeeee;strokeColor=none;" parent="1" vertex="1">
          <mxGeometry x="-60" y="280" width="110" height="147.5" as="geometry" />
        </mxCell>
        <mxCell id="sHLZ-SZ676Q3P7wnUCrE-121" value="" style="rounded=1;whiteSpace=wrap;html=1;fillColor=#eeeeee;strokeColor=none;" parent="1" vertex="1">
          <mxGeometry x="-490" y="420" width="240" height="130" as="geometry" />
        </mxCell>
        <mxCell id="sHLZ-SZ676Q3P7wnUCrE-138" value="" style="group" parent="1" vertex="1" connectable="0">
          <mxGeometry x="-495" y="320" width="190" height="140" as="geometry" />
        </mxCell>
        <mxCell id="sHLZ-SZ676Q3P7wnUCrE-163" value="" style="shape=stencil(vZXdcoMgEIWfhltGlkiSy45N34MaUpkacNAk5u2Dgqn1JzN1sDPeeJb9WM4yLKJJmfFCIIh4WYi0QvQdAVy5kfwztzLYSOZEYHgT7ygFp94m1bIy+lvc5LHyWVJlwsiqidIDit7smuajSaqVshtKrcpfkV7cwrhUNjeqHSxym9z9H4bYCYXd4iwqYVyAOBXBx1JyKCxZr+AnK3TNIzJZyWQczIyhzQFdXs3kf/J4u5rJ4cg/rPA2b1fymSzH0sQqc88fTU7aiC+jL+o4WcxJ5rl7ZV9UXPDm/R0FuvBZX0XfpOGliV750UFyqXoQhhlpBgEsQaUX4woi3jiKAfaEMQ8jA1oNk8Pn7uUYt8nMt76m06u9TPZ4t6HdPfnLmYfASXWuRVaf6ZKdyXP9bdNGF6RV3RxvhQc=);whiteSpace=wrap;html=1;strokeWidth=10;fillColor=#e3c800;strokeColor=#B09500;points=[[0,0,0,0,0],[1,1,0,0,0]];flipH=1;fontColor=#000000;" parent="sHLZ-SZ676Q3P7wnUCrE-138" vertex="1">
          <mxGeometry x="115" y="65" width="75" height="75" as="geometry" />
        </mxCell>
        <mxCell id="sHLZ-SZ676Q3P7wnUCrE-165" value="" style="shape=stencil(vZXdcoMgEIWfhltGlkiSy45N34MaUpkacNAk5u2Dgqn1JzN1sDPeeJb9WM4yLKJJmfFCIIh4WYi0QvQdAVy5kfwztzLYSOZEYHgT7ygFp94m1bIy+lvc5LHyWVJlwsiqidIDit7smuajSaqVshtKrcpfkV7cwrhUNjeqHSxym9z9H4bYCYXd4iwqYVyAOBXBx1JyKCxZr+AnK3TNIzJZyWQczIyhzQFdXs3kf/J4u5rJ4cg/rPA2b1fymSzH0sQqc88fTU7aiC+jL+o4WcxJ5rl7ZV9UXPDm/R0FuvBZX0XfpOGliV750UFyqXoQhhlpBgEsQaUX4woi3jiKAfaEMQ8jA1oNk8Pn7uUYt8nMt76m06u9TPZ4t6HdPfnLmYfASXWuRVaf6ZKdyXP9bdNGF6RV3RxvhQc=);whiteSpace=wrap;html=1;strokeWidth=10;fillColor=#e3c800;strokeColor=#B09500;points=[[0,0,0,0,0],[1,1,0,0,0]];fontColor=#000000;" parent="sHLZ-SZ676Q3P7wnUCrE-138" vertex="1">
          <mxGeometry x="40" y="65" width="75" height="75" as="geometry" />
        </mxCell>
        <mxCell id="sHLZ-SZ676Q3P7wnUCrE-154" value="" style="shape=stencil(vZXdcoMgEIWfhltGlkiSy45N34MaUpkacNAk5u2Dgqn1JzN1sDPeeJb9WM4yLKJJmfFCIIh4WYi0QvQdAVy5kfwztzLYSOZEYHgT7ygFp94m1bIy+lvc5LHyWVJlwsiqidIDit7smuajSaqVshtKrcpfkV7cwrhUNjeqHSxym9z9H4bYCYXd4iwqYVyAOBXBx1JyKCxZr+AnK3TNIzJZyWQczIyhzQFdXs3kf/J4u5rJ4cg/rPA2b1fymSzH0sQqc88fTU7aiC+jL+o4WcxJ5rl7ZV9UXPDm/R0FuvBZX0XfpOGliV750UFyqXoQhhlpBgEsQaUX4woi3jiKAfaEMQ8jA1oNk8Pn7uUYt8nMt76m06u9TPZ4t6HdPfnLmYfASXWuRVaf6ZKdyXP9bdNGF6RV3RxvhQc=);whiteSpace=wrap;html=1;strokeWidth=10;fillColor=#0050ef;strokeColor=#001DBC;points=[[0,0,0,0,0],[1,1,0,0,0]];fontColor=#ffffff;" parent="sHLZ-SZ676Q3P7wnUCrE-138" vertex="1">
          <mxGeometry x="65" y="65" width="75" height="75" as="geometry" />
        </mxCell>
        <mxCell id="sHLZ-SZ676Q3P7wnUCrE-139" value="" style="shape=image;aspect=fixed;image=data:image/svg+xml,PD94bWwgdmVyc2lvbj0iMS4wIiBlbmNvZGluZz0iVVRGLTgiIHN0YW5kYWxvbmU9Im5vIj8+CjwhLS0gQ3JlYXRlZCB3aXRoIElua3NjYXBlIChodHRwOi8vd3d3Lmlua3NjYXBlLm9yZy8pIC0tPgoKPHN2ZwogICB3aWR0aD0iMjEuMTY2NjdtbSIKICAgaGVpZ2h0PSIyMy44MTI1MDJtbSIKICAgdmlld0JveD0iMCAwIDIxLjE2NjY3IDIzLjgxMjUwMiIKICAgdmVyc2lvbj0iMS4xIgogICBpZD0ic3ZnNzM2MiIKICAgeG1sbnM9Imh0dHA6Ly93d3cudzMub3JnLzIwMDAvc3ZnIgogICB4bWxuczpzdmc9Imh0dHA6Ly93d3cudzMub3JnLzIwMDAvc3ZnIj4KICA8ZGVmcwogICAgIGlkPSJkZWZzNzM1OSIgLz4KICA8ZwogICAgIGlkPSJsYXllcjEiCiAgICAgc3R5bGU9ImRpc3BsYXk6aW5saW5lIgogICAgIHRyYW5zZm9ybT0idHJhbnNsYXRlKDM3LjA0MTY3MywtMTQwLjIyOTE3KSI+CiAgICA8ZwogICAgICAgaWQ9ImcxODQ4OC0zLTIiCiAgICAgICB0cmFuc2Zvcm09InRyYW5zbGF0ZSgtMTY2LjY4NzQ5LDQ3LjYyNDk5NykiCiAgICAgICBzdHlsZT0iZGlzcGxheTppbmxpbmUiPgogICAgICA8cGF0aAogICAgICAgICBpZD0icGF0aDYyNzYtNC0wLTYiCiAgICAgICAgIHN0eWxlPSJmaWxsOiNmZmZmZmY7c3Ryb2tlLXdpZHRoOjAuMjMwNzAyIgogICAgICAgICBkPSJtIDEzMi4yOTE2Niw5My45MjcwNzIgdiAyMS4xNjY2NjggaCAxNS44NzUwMSBWIDk5LjIxODc0OCBsIC01LjI5MTY4LC01LjI5MTY3NiB6IiAvPgogICAgICA8cGF0aAogICAgICAgICBpZD0icGF0aDU4NjItMy03IgogICAgICAgICBkPSJtIDE0OS40ODk1OCw5Ny44OTU4MzIgYyAwLC0wLjI2NDU3NiAtMC4yNjQ1OCwtMC41MjkxNjQgLTAuNTI5MTcsLTAuNzkzNzUyIGwgLTQuNDk3OTEsLTMuOTY4NzQ4IGMgLTAuMjY0NTgsLTAuMjY0NTg4IC0wLjUyOTE3LC0wLjUyOTE2NCAtMC44Mjc4OCwtMC41MjkxNjQgaCAtMy40MDU0NSAtNy45Mzc1MSBjIC0wLjc5Mzc1LDAgLTEuMzIyOTIsMC41MjkxNjQgLTEuMzIyOTIsMS4zMjI5MTYgMCw3LjA1NTU1NiAwLDE0LjExMTEwNiAwLDIxLjE2NjY2NiAwLDAuNzkzNzUgMC41MjkxNywxLjMyMjkyIDEuMzIyOTIsMS4zMjI5MiBoIDcuOTM3NTEgNy45Mzc1IGMgMC43OTM3NCwwIDEuMzIyOTEsLTAuNTI5MTcgMS4zMjI5MSwtMS4zMjI5MiB6IG0gLTEuMzIyOTEsMTcuMTk3OTE4IEggMTMyLjI5MTY2IFYgOTMuOTI3MDg0IGggMTAuNTgzMzMgdiA0Ljc2MjUgYyAwLDAuMzE3NTA4IDAuMjAzNTMsMC41MjkxNjQgMC41MjkxNywwLjUyOTE2NCBoIDQuNzYyNTEgeiIKICAgICAgICAgc3R5bGU9InN0cm9rZS13aWR0aDowLjIzMTY3IiAvPgogICAgICA8cGF0aAogICAgICAgICBpZD0icmVjdDE4MzQ3LTYtMSIKICAgICAgICAgc3R5bGU9ImZpbGwtcnVsZTpldmVub2RkO3N0cm9rZS13aWR0aDowLjEyMjAyNztwYWludC1vcmRlcjpmaWxsIG1hcmtlcnMgc3Ryb2tlIgogICAgICAgICBkPSJtIDEzMS4wMTc1MiwxMDEuODY0NiBjIDYuMTQxMDksMCAxMi4yODIxNywwIDE4LjQyMzI2LDAgMC43NTk5MywwIDEuMzcxNzEsMC40OTcwNiAxLjM3MTcxLDEuMTE0NSB2IDIuODU0MjIgMi44NTQyNSBjIDAsMC42MTc0NCAtMC42MTE3OCwxLjExNDUgLTEuMzcxNzEsMS4xMTQ1IC02LjE0MTA5LDAgLTEyLjI4MjE3LDAgLTE4LjQyMzI2LDAgLTAuNzU5OTIsMCAtMS4zNzE3LC0wLjQ5NzA2IC0xLjM3MTcsLTEuMTE0NSB2IC0yLjg1NDI1IC0yLjg1NDIyIGMgMCwtMC42MTc0NCAwLjYxMTc4LC0xLjExNDUgMS4zNzE3LC0xLjExNDUgeiIgLz4KICAgIDwvZz4KICA8L2c+Cjwvc3ZnPgo=;" parent="sHLZ-SZ676Q3P7wnUCrE-138" vertex="1">
          <mxGeometry width="80" height="90" as="geometry" />
        </mxCell>
        <mxCell id="sHLZ-SZ676Q3P7wnUCrE-140" value="&lt;font style=&quot;font-size: 13px;&quot; color=&quot;#ffffff&quot; data-font-src=&quot;https://fonts.googleapis.com/css?family=Maven+Pro&quot; face=&quot;Maven Pro&quot;&gt;&lt;b style=&quot;&quot;&gt;cleaned reads.fa&lt;/b&gt;&lt;/font&gt;" style="text;html=1;strokeColor=none;fillColor=none;align=center;verticalAlign=middle;whiteSpace=wrap;rounded=0;" parent="sHLZ-SZ676Q3P7wnUCrE-138" vertex="1">
          <mxGeometry x="10" y="35" width="60" height="30" as="geometry" />
        </mxCell>
        <mxCell id="sHLZ-SZ676Q3P7wnUCrE-156" value="" style="shape=stencil(vZXdcoMgEIWfhltGlkiSy45N34MaUpkacNAk5u2Dgqn1JzN1sDPeeJb9WM4yLKJJmfFCIIh4WYi0QvQdAVy5kfwztzLYSOZEYHgT7ygFp94m1bIy+lvc5LHyWVJlwsiqidIDit7smuajSaqVshtKrcpfkV7cwrhUNjeqHSxym9z9H4bYCYXd4iwqYVyAOBXBx1JyKCxZr+AnK3TNIzJZyWQczIyhzQFdXs3kf/J4u5rJ4cg/rPA2b1fymSzH0sQqc88fTU7aiC+jL+o4WcxJ5rl7ZV9UXPDm/R0FuvBZX0XfpOGliV750UFyqXoQhhlpBgEsQaUX4woi3jiKAfaEMQ8jA1oNk8Pn7uUYt8nMt76m06u9TPZ4t6HdPfnLmYfASXWuRVaf6ZKdyXP9bdNGF6RV3RxvhQc=);whiteSpace=wrap;html=1;strokeWidth=10;fillColor=#d5e8d4;strokeColor=#82b366;points=[[0,0,0,0,0],[1,1,0,0,0]];flipH=1;gradientColor=#97d077;" parent="1" vertex="1">
          <mxGeometry x="-360" y="385" width="80" height="80" as="geometry" />
        </mxCell>
        <mxCell id="sHLZ-SZ676Q3P7wnUCrE-183" value="" style="shape=stencil(vZXdcoMgEIWfhltGlkiSy45N34MaUpkacNAk5u2Dgqn1JzN1sDPeeJb9WM4yLKJJmfFCIIh4WYi0QvQdAVy5kfwztzLYSOZEYHgT7ygFp94m1bIy+lvc5LHyWVJlwsiqidIDit7smuajSaqVshtKrcpfkV7cwrhUNjeqHSxym9z9H4bYCYXd4iwqYVyAOBXBx1JyKCxZr+AnK3TNIzJZyWQczIyhzQFdXs3kf/J4u5rJ4cg/rPA2b1fymSzH0sQqc88fTU7aiC+jL+o4WcxJ5rl7ZV9UXPDm/R0FuvBZX0XfpOGliV750UFyqXoQhhlpBgEsQaUX4woi3jiKAfaEMQ8jA1oNk8Pn7uUYt8nMt76m06u9TPZ4t6HdPfnLmYfASXWuRVaf6ZKdyXP9bdNGF6RV3RxvhQc=);whiteSpace=wrap;html=1;strokeWidth=10;fillColor=#0050ef;strokeColor=#001DBC;points=[[0,0,0,0,0],[1,1,0,0,0]];flipH=1;fontColor=#ffffff;" parent="1" vertex="1">
          <mxGeometry x="-350" y="390" width="70" height="75" as="geometry" />
        </mxCell>
        <mxCell id="sHLZ-SZ676Q3P7wnUCrE-174" value="" style="shape=stencil(vZXdcoMgEIWfhltGlkiSy45N34MaUpkacNAk5u2Dgqn1JzN1sDPeeJb9WM4yLKJJmfFCIIh4WYi0QvQdAVy5kfwztzLYSOZEYHgT7ygFp94m1bIy+lvc5LHyWVJlwsiqidIDit7smuajSaqVshtKrcpfkV7cwrhUNjeqHSxym9z9H4bYCYXd4iwqYVyAOBXBx1JyKCxZr+AnK3TNIzJZyWQczIyhzQFdXs3kf/J4u5rJ4cg/rPA2b1fymSzH0sQqc88fTU7aiC+jL+o4WcxJ5rl7ZV9UXPDm/R0FuvBZX0XfpOGliV750UFyqXoQhhlpBgEsQaUX4woi3jiKAfaEMQ8jA1oNk8Pn7uUYt8nMt76m06u9TPZ4t6HdPfnLmYfASXWuRVaf6ZKdyXP9bdNGF6RV3RxvhQc=);whiteSpace=wrap;html=1;strokeWidth=10;fillColor=#e3c800;strokeColor=#B09500;points=[[0,0,0,0,0],[1,1,0,0,0]];fontColor=#000000;" parent="1" vertex="1">
          <mxGeometry x="-325" y="198" width="55" height="92" as="geometry" />
        </mxCell>
        <mxCell id="sHLZ-SZ676Q3P7wnUCrE-175" value="" style="shape=stencil(vZXdcoMgEIWfhltGlkiSy45N34MaUpkacNAk5u2Dgqn1JzN1sDPeeJb9WM4yLKJJmfFCIIh4WYi0QvQdAVy5kfwztzLYSOZEYHgT7ygFp94m1bIy+lvc5LHyWVJlwsiqidIDit7smuajSaqVshtKrcpfkV7cwrhUNjeqHSxym9z9H4bYCYXd4iwqYVyAOBXBx1JyKCxZr+AnK3TNIzJZyWQczIyhzQFdXs3kf/J4u5rJ4cg/rPA2b1fymSzH0sQqc88fTU7aiC+jL+o4WcxJ5rl7ZV9UXPDm/R0FuvBZX0XfpOGliV750UFyqXoQhhlpBgEsQaUX4woi3jiKAfaEMQ8jA1oNk8Pn7uUYt8nMt76m06u9TPZ4t6HdPfnLmYfASXWuRVaf6ZKdyXP9bdNGF6RV3RxvhQc=);whiteSpace=wrap;html=1;strokeWidth=10;fillColor=#e3c800;strokeColor=#B09500;points=[[0,0,0,0,0],[1,1,0,0,0]];fontColor=#000000;" parent="1" vertex="1">
          <mxGeometry x="-310" y="160" width="40" height="130" as="geometry" />
        </mxCell>
        <mxCell id="sHLZ-SZ676Q3P7wnUCrE-173" value="" style="shape=stencil(vZXdcoMgEIWfhltGlkiSy45N34MaUpkacNAk5u2Dgqn1JzN1sDPeeJb9WM4yLKJJmfFCIIh4WYi0QvQdAVy5kfwztzLYSOZEYHgT7ygFp94m1bIy+lvc5LHyWVJlwsiqidIDit7smuajSaqVshtKrcpfkV7cwrhUNjeqHSxym9z9H4bYCYXd4iwqYVyAOBXBx1JyKCxZr+AnK3TNIzJZyWQczIyhzQFdXs3kf/J4u5rJ4cg/rPA2b1fymSzH0sQqc88fTU7aiC+jL+o4WcxJ5rl7ZV9UXPDm/R0FuvBZX0XfpOGliV750UFyqXoQhhlpBgEsQaUX4woi3jiKAfaEMQ8jA1oNk8Pn7uUYt8nMt76m06u9TPZ4t6HdPfnLmYfASXWuRVaf6ZKdyXP9bdNGF6RV3RxvhQc=);whiteSpace=wrap;html=1;strokeWidth=10;fillColor=light-dark(#82B366,#6DB2FF);strokeColor=light-dark(#82b366, #b2cbff);points=[[0,0,0,0,0],[1,1,0,0,0]];fontColor=#ffffff;" parent="1" vertex="1">
          <mxGeometry x="-350" y="222.5" width="75" height="75" as="geometry" />
        </mxCell>
        <mxCell id="sHLZ-SZ676Q3P7wnUCrE-172" value="" style="shape=stencil(vZXdcoMgEIWfhltGlkiSy45N34MaUpkacNAk5u2Dgqn1JzN1sDPeeJb9WM4yLKJJmfFCIIh4WYi0QvQdAVy5kfwztzLYSOZEYHgT7ygFp94m1bIy+lvc5LHyWVJlwsiqidIDit7smuajSaqVshtKrcpfkV7cwrhUNjeqHSxym9z9H4bYCYXd4iwqYVyAOBXBx1JyKCxZr+AnK3TNIzJZyWQczIyhzQFdXs3kf/J4u5rJ4cg/rPA2b1fymSzH0sQqc88fTU7aiC+jL+o4WcxJ5rl7ZV9UXPDm/R0FuvBZX0XfpOGliV750UFyqXoQhhlpBgEsQaUX4woi3jiKAfaEMQ8jA1oNk8Pn7uUYt8nMt76m06u9TPZ4t6HdPfnLmYfASXWuRVaf6ZKdyXP9bdNGF6RV3RxvhQc=);whiteSpace=wrap;html=1;strokeWidth=10;fillColor=#0050ef;strokeColor=#001DBC;points=[[0,0,0,0,0],[1,1,0,0,0]];fontColor=#ffffff;" parent="1" vertex="1">
          <mxGeometry x="-317.5" y="255" width="35" height="50" as="geometry" />
        </mxCell>
        <mxCell id="sHLZ-SZ676Q3P7wnUCrE-125" value="" style="rounded=1;whiteSpace=wrap;html=1;fillColor=#eeeeee;strokeColor=none;" parent="1" vertex="1">
          <mxGeometry x="-190" y="280" width="110" height="147.5" as="geometry" />
        </mxCell>
        <mxCell id="sHLZ-SZ676Q3P7wnUCrE-77" value="" style="endArrow=none;html=1;rounded=1;strokeWidth=10;strokeColor=#001DBC;fillColor=#0050ef;exitX=0.268;exitY=0.92;exitDx=0;exitDy=0;exitPerimeter=0;" parent="1" source="sHLZ-SZ676Q3P7wnUCrE-78" target="sHLZ-SZ676Q3P7wnUCrE-74" edge="1">
          <mxGeometry width="50" height="50" relative="1" as="geometry">
            <mxPoint x="-420" y="228" as="sourcePoint" />
            <mxPoint x="-255" y="227.6" as="targetPoint" />
          </mxGeometry>
        </mxCell>
        <mxCell id="sHLZ-SZ676Q3P7wnUCrE-34" value="" style="shape=stencil(nVTbcoMgEP0aH8PAIrfHjm3/wyakMjXooLn9fSHgNBiTacL44tnds2cvUNBqaOpeF4DrodfrsaDvBcChdqb+aj0M3tJEkCIGQgilInqMKEgE4ZCIDqPrfvTRbMYUZWyjnRmDlX4U+M37hI9W685an9B0dsgsV3ZPVhvrY/EpkuGY5Bz/Usre8+/0qF2GFvD5b1qS0eJnaGnlkXul0GrbOf3tur3dLIrZmraNHXuguK9DL28Mk3nXHfRfKSUCDJJLqldYZGXNxrecbSJtjb0iZQgU4Zyz1wnXexdlkhgskSSqZDBRkkXOE6TmY8Qk9Sd5w7I3Td4lIuEk+DzBSHAqpeSv6CUChWAFud4VQaHTfCZXoRKDkGUud+acZAEgRTFjIlebOz8zrelG0mxaGOHHF8PjdzbNvxH3dvQSdrPkFzS+KxfgFw==);whiteSpace=wrap;html=1;strokeWidth=10;fillColor=#e3c800;strokeColor=#B09500;fontColor=#000000;" parent="1" vertex="1">
          <mxGeometry x="-560" y="195" width="80" height="10" as="geometry" />
        </mxCell>
        <mxCell id="sHLZ-SZ676Q3P7wnUCrE-35" value="" style="shape=stencil(nVTbcoMgEP0aH8PAIrfHjm3/wyakMjXooLn9fSHgNBiTacL44tnds2cvUNBqaOpeF4DrodfrsaDvBcChdqb+aj0M3tJEkCIGQgilInqMKEgE4ZCIDqPrfvTRbMYUZWyjnRmDlX4U+M37hI9W685an9B0dsgsV3ZPVhvrY/EpkuGY5Bz/Usre8+/0qF2GFvD5b1qS0eJnaGnlkXul0GrbOf3tur3dLIrZmraNHXuguK9DL28Mk3nXHfRfKSUCDJJLqldYZGXNxrecbSJtjb0iZQgU4Zyz1wnXexdlkhgskSSqZDBRkkXOE6TmY8Qk9Sd5w7I3Td4lIuEk+DzBSHAqpeSv6CUChWAFud4VQaHTfCZXoRKDkGUud+acZAEgRTFjIlebOz8zrelG0mxaGOHHF8PjdzbNvxH3dvQSdrPkFzS+KxfgFw==);whiteSpace=wrap;html=1;strokeWidth=10;fillColor=#0050ef;strokeColor=#001DBC;flipV=1;fontColor=#ffffff;" parent="1" vertex="1">
          <mxGeometry x="-560" y="215" width="80" height="10" as="geometry" />
        </mxCell>
        <mxCell id="sHLZ-SZ676Q3P7wnUCrE-1" value="" style="group;strokeColor=none;" parent="1" vertex="1" connectable="0">
          <mxGeometry x="-770" y="160" width="185" height="90" as="geometry" />
        </mxCell>
        <mxCell id="sHLZ-SZ676Q3P7wnUCrE-40" value="" style="endArrow=none;html=1;rounded=1;strokeWidth=10;strokeColor=#B09500;fillColor=#e3c800;" parent="sHLZ-SZ676Q3P7wnUCrE-1" edge="1">
          <mxGeometry width="50" height="50" relative="1" as="geometry">
            <mxPoint x="80" y="45" as="sourcePoint" />
            <mxPoint x="200" y="45" as="targetPoint" />
          </mxGeometry>
        </mxCell>
        <mxCell id="sHLZ-SZ676Q3P7wnUCrE-41" value="" style="endArrow=none;html=1;rounded=1;strokeWidth=10;strokeColor=#001DBC;fillColor=#0050ef;" parent="sHLZ-SZ676Q3P7wnUCrE-1" edge="1">
          <mxGeometry width="50" height="50" relative="1" as="geometry">
            <mxPoint x="80" y="55" as="sourcePoint" />
            <mxPoint x="200" y="55" as="targetPoint" />
          </mxGeometry>
        </mxCell>
        <mxCell id="sHLZ-SZ676Q3P7wnUCrE-42" value="" style="shape=image;verticalLabelPosition=bottom;verticalAlign=top;imageAspect=0;aspect=fixed;image=data:image/svg+xml,PHN2ZyB4bWxucz0iaHR0cDovL3d3dy53My5vcmcvMjAwMC9zdmciIGlkPSJzdmc3MzYyIiB2ZXJzaW9uPSIxLjEiIHZpZXdCb3g9IjAgMCA3LjkzNzQ5NjcgNy45Mzc0OTYyIiBoZWlnaHQ9IjcuOTM3NDk2Mm1tIiB3aWR0aD0iNy45Mzc0OTY3bW0iPiYjeGE7ICAmI3hhOyAgICAmI3hhOyAgJiN4YTsgIDxkZWZzIGlkPSJkZWZzNzM1OSIvPiYjeGE7ICA8ZyB0cmFuc2Zvcm09InRyYW5zbGF0ZSgtMy45ODk0MzAzLC0zMy4wNzI5MjEpIiBpZD0ibGF5ZXI1Ij4mI3hhOyAgICA8ZyBpZD0ibGF5ZXI2Ij4mI3hhOyAgICAgIDxjaXJjbGUgcj0iMi42NDU4MzMzIiBjeT0iMzcuMDQxNjY4IiBjeD0iNy45NTgxNzg1IiBpZD0icGF0aDM0NDciIHN0eWxlPSJmaWxsOiNmZmZmZmY7c3Ryb2tlOiMwMDAwMDA7c3Ryb2tlLXdpZHRoOjIuNjQ1ODM7c3Ryb2tlLWxpbmVjYXA6cm91bmQ7c3Ryb2tlLW1pdGVybGltaXQ6NDtzdHJva2UtZGFzaGFycmF5Om5vbmU7cGFpbnQtb3JkZXI6c3Ryb2tlIG1hcmtlcnMgZmlsbDtzdG9wLWNvbG9yOiMwMDAwMDAiLz4mI3hhOyAgICA8L2c+JiN4YTsgIDwvZz4mI3hhOzwvc3ZnPg==" parent="sHLZ-SZ676Q3P7wnUCrE-1" vertex="1">
          <mxGeometry x="125" y="35" width="30" height="30" as="geometry" />
        </mxCell>
        <mxCell id="sHLZ-SZ676Q3P7wnUCrE-2" value="" style="shape=image;aspect=fixed;image=data:image/svg+xml,PD94bWwgdmVyc2lvbj0iMS4wIiBlbmNvZGluZz0iVVRGLTgiIHN0YW5kYWxvbmU9Im5vIj8+CjwhLS0gQ3JlYXRlZCB3aXRoIElua3NjYXBlIChodHRwOi8vd3d3Lmlua3NjYXBlLm9yZy8pIC0tPgoKPHN2ZwogICB3aWR0aD0iMjEuMTY2NjdtbSIKICAgaGVpZ2h0PSIyMy44MTI1MDJtbSIKICAgdmlld0JveD0iMCAwIDIxLjE2NjY3IDIzLjgxMjUwMiIKICAgdmVyc2lvbj0iMS4xIgogICBpZD0ic3ZnNzM2MiIKICAgeG1sbnM9Imh0dHA6Ly93d3cudzMub3JnLzIwMDAvc3ZnIgogICB4bWxuczpzdmc9Imh0dHA6Ly93d3cudzMub3JnLzIwMDAvc3ZnIj4KICA8ZGVmcwogICAgIGlkPSJkZWZzNzM1OSIgLz4KICA8ZwogICAgIGlkPSJsYXllcjEiCiAgICAgc3R5bGU9ImRpc3BsYXk6aW5saW5lIgogICAgIHRyYW5zZm9ybT0idHJhbnNsYXRlKDM3LjA0MTY3MywtMTQwLjIyOTE3KSI+CiAgICA8ZwogICAgICAgaWQ9ImcxODQ4OC0zLTIiCiAgICAgICB0cmFuc2Zvcm09InRyYW5zbGF0ZSgtMTY2LjY4NzQ5LDQ3LjYyNDk5NykiCiAgICAgICBzdHlsZT0iZGlzcGxheTppbmxpbmUiPgogICAgICA8cGF0aAogICAgICAgICBpZD0icGF0aDYyNzYtNC0wLTYiCiAgICAgICAgIHN0eWxlPSJmaWxsOiNmZmZmZmY7c3Ryb2tlLXdpZHRoOjAuMjMwNzAyIgogICAgICAgICBkPSJtIDEzMi4yOTE2Niw5My45MjcwNzIgdiAyMS4xNjY2NjggaCAxNS44NzUwMSBWIDk5LjIxODc0OCBsIC01LjI5MTY4LC01LjI5MTY3NiB6IiAvPgogICAgICA8cGF0aAogICAgICAgICBpZD0icGF0aDU4NjItMy03IgogICAgICAgICBkPSJtIDE0OS40ODk1OCw5Ny44OTU4MzIgYyAwLC0wLjI2NDU3NiAtMC4yNjQ1OCwtMC41MjkxNjQgLTAuNTI5MTcsLTAuNzkzNzUyIGwgLTQuNDk3OTEsLTMuOTY4NzQ4IGMgLTAuMjY0NTgsLTAuMjY0NTg4IC0wLjUyOTE3LC0wLjUyOTE2NCAtMC44Mjc4OCwtMC41MjkxNjQgaCAtMy40MDU0NSAtNy45Mzc1MSBjIC0wLjc5Mzc1LDAgLTEuMzIyOTIsMC41MjkxNjQgLTEuMzIyOTIsMS4zMjI5MTYgMCw3LjA1NTU1NiAwLDE0LjExMTEwNiAwLDIxLjE2NjY2NiAwLDAuNzkzNzUgMC41MjkxNywxLjMyMjkyIDEuMzIyOTIsMS4zMjI5MiBoIDcuOTM3NTEgNy45Mzc1IGMgMC43OTM3NCwwIDEuMzIyOTEsLTAuNTI5MTcgMS4zMjI5MSwtMS4zMjI5MiB6IG0gLTEuMzIyOTEsMTcuMTk3OTE4IEggMTMyLjI5MTY2IFYgOTMuOTI3MDg0IGggMTAuNTgzMzMgdiA0Ljc2MjUgYyAwLDAuMzE3NTA4IDAuMjAzNTMsMC41MjkxNjQgMC41MjkxNywwLjUyOTE2NCBoIDQuNzYyNTEgeiIKICAgICAgICAgc3R5bGU9InN0cm9rZS13aWR0aDowLjIzMTY3IiAvPgogICAgICA8cGF0aAogICAgICAgICBpZD0icmVjdDE4MzQ3LTYtMSIKICAgICAgICAgc3R5bGU9ImZpbGwtcnVsZTpldmVub2RkO3N0cm9rZS13aWR0aDowLjEyMjAyNztwYWludC1vcmRlcjpmaWxsIG1hcmtlcnMgc3Ryb2tlIgogICAgICAgICBkPSJtIDEzMS4wMTc1MiwxMDEuODY0NiBjIDYuMTQxMDksMCAxMi4yODIxNywwIDE4LjQyMzI2LDAgMC43NTk5MywwIDEuMzcxNzEsMC40OTcwNiAxLjM3MTcxLDEuMTE0NSB2IDIuODU0MjIgMi44NTQyNSBjIDAsMC42MTc0NCAtMC42MTE3OCwxLjExNDUgLTEuMzcxNzEsMS4xMTQ1IC02LjE0MTA5LDAgLTEyLjI4MjE3LDAgLTE4LjQyMzI2LDAgLTAuNzU5OTIsMCAtMS4zNzE3LC0wLjQ5NzA2IC0xLjM3MTcsLTEuMTE0NSB2IC0yLjg1NDI1IC0yLjg1NDIyIGMgMCwtMC42MTc0NCAwLjYxMTc4LC0xLjExNDUgMS4zNzE3LC0xLjExNDUgeiIgLz4KICAgIDwvZz4KICA8L2c+Cjwvc3ZnPgo=;" parent="sHLZ-SZ676Q3P7wnUCrE-1" vertex="1">
          <mxGeometry width="80" height="90" as="geometry" />
        </mxCell>
        <mxCell id="sHLZ-SZ676Q3P7wnUCrE-3" value="&lt;font style=&quot;font-size: 20px;&quot; color=&quot;#ffffff&quot; data-font-src=&quot;https://fonts.googleapis.com/css?family=Maven+Pro&quot; face=&quot;Maven Pro&quot;&gt;&lt;b&gt;fastq&lt;/b&gt;&lt;/font&gt;" style="text;html=1;strokeColor=none;fillColor=none;align=center;verticalAlign=middle;whiteSpace=wrap;rounded=0;" parent="sHLZ-SZ676Q3P7wnUCrE-1" vertex="1">
          <mxGeometry x="10" y="35" width="60" height="30" as="geometry" />
        </mxCell>
        <mxCell id="sHLZ-SZ676Q3P7wnUCrE-66" value="bbduk" style="text;html=1;align=center;verticalAlign=middle;resizable=0;points=[];autosize=1;strokeColor=none;fillColor=none;rotation=-35;" parent="sHLZ-SZ676Q3P7wnUCrE-1" vertex="1">
          <mxGeometry x="110" y="5" width="60" height="30" as="geometry" />
        </mxCell>
        <mxCell id="sHLZ-SZ676Q3P7wnUCrE-9" value="" style="shape=image;verticalLabelPosition=bottom;verticalAlign=top;imageAspect=0;aspect=fixed;image=data:image/svg+xml,PHN2ZyB4bWxucz0iaHR0cDovL3d3dy53My5vcmcvMjAwMC9zdmciIGlkPSJzdmc3MzYyIiB2ZXJzaW9uPSIxLjEiIHZpZXdCb3g9IjAgMCA3LjkzNzQ5NjcgNy45Mzc0OTYyIiBoZWlnaHQ9IjcuOTM3NDk2Mm1tIiB3aWR0aD0iNy45Mzc0OTY3bW0iPiYjeGE7ICAmI3hhOyAgICAmI3hhOyAgJiN4YTsgIDxkZWZzIGlkPSJkZWZzNzM1OSIvPiYjeGE7ICA8ZyB0cmFuc2Zvcm09InRyYW5zbGF0ZSgtMy45ODk0MzAzLC0zMy4wNzI5MjEpIiBpZD0ibGF5ZXI1Ij4mI3hhOyAgICA8ZyBpZD0ibGF5ZXI2Ij4mI3hhOyAgICAgIDxjaXJjbGUgcj0iMi42NDU4MzMzIiBjeT0iMzcuMDQxNjY4IiBjeD0iNy45NTgxNzg1IiBpZD0icGF0aDM0NDciIHN0eWxlPSJmaWxsOiNmZmZmZmY7c3Ryb2tlOiMwMDAwMDA7c3Ryb2tlLXdpZHRoOjIuNjQ1ODM7c3Ryb2tlLWxpbmVjYXA6cm91bmQ7c3Ryb2tlLW1pdGVybGltaXQ6NDtzdHJva2UtZGFzaGFycmF5Om5vbmU7cGFpbnQtb3JkZXI6c3Ryb2tlIG1hcmtlcnMgZmlsbDtzdG9wLWNvbG9yOiMwMDAwMDAiLz4mI3hhOyAgICA8L2c+JiN4YTsgIDwvZz4mI3hhOzwvc3ZnPg==" parent="1" vertex="1">
          <mxGeometry x="-580" y="195" width="30" height="30" as="geometry" />
        </mxCell>
        <mxCell id="sHLZ-SZ676Q3P7wnUCrE-26" value="" style="endArrow=none;html=1;rounded=1;strokeWidth=10;strokeColor=#B09500;fillColor=#e3c800;" parent="1" target="sHLZ-SZ676Q3P7wnUCrE-82" edge="1">
          <mxGeometry width="50" height="50" relative="1" as="geometry">
            <mxPoint x="-425" y="195.06999999999994" as="sourcePoint" />
            <mxPoint x="-220" y="195" as="targetPoint" />
          </mxGeometry>
        </mxCell>
        <mxCell id="sHLZ-SZ676Q3P7wnUCrE-30" value="" style="shape=stencil(nVRbcoMwDDwNn/HIEn7w2SHtPWjiNJ4Swxjyun0NhmncJG0Tj39YSavVA2dUdtuqNRlC1bVm1We0zBAPlbfVex1gDJZtBDkwoYkogscIomY4HB7RrvfNpznadT8FWbc13vaDlV4zeAk+w6Vy1TgX8tnGdYnlwh7IKutCLJwiGcQk50lP/GoD/870xidohm//puUJLTxCS2VA7pVC5abx5sM3e7e+KWZj6zp27BfFbTX08sowm3fNwXyXolkhc60LMgtQabeS6d1ONnPW1l1w5kwBKZDF03yrvY8ieYxVTHIFKKfgM79FecIUnZ1xrlTzIic1VXmiyTtnPBzCyXuCBcOCSymeUcuDXNIF5D/UMhVgVYhULgJTKEDwVO4CGISKpaBULxITXAuuUr3B+/FBzf8iJYP6g2rc4Ds7Fh6He9s5hl2t94jGB2UEvgA=);whiteSpace=wrap;html=1;strokeWidth=10;strokeColor=#B09500;fillColor=#e3c800;flipV=1;fontColor=#000000;" parent="1" vertex="1">
          <mxGeometry x="-450" y="195" width="80" height="30" as="geometry" />
        </mxCell>
        <mxCell id="sHLZ-SZ676Q3P7wnUCrE-31" value="" style="shape=stencil(nVRbcoMwDDwNn/HIEn7w2SHtPWjiNJ4Swxjyun0NhmncJG0Tj39YSavVA2dUdtuqNRlC1bVm1We0zBAPlbfVex1gDJZtBDkwoYkogscIomY4HB7RrvfNpznadT8FWbc13vaDlV4zeAk+w6Vy1TgX8tnGdYnlwh7IKutCLJwiGcQk50lP/GoD/870xidohm//puUJLTxCS2VA7pVC5abx5sM3e7e+KWZj6zp27BfFbTX08sowm3fNwXyXolkhc60LMgtQabeS6d1ONnPW1l1w5kwBKZDF03yrvY8ieYxVTHIFKKfgM79FecIUnZ1xrlTzIic1VXmiyTtnPBzCyXuCBcOCSymeUcuDXNIF5D/UMhVgVYhULgJTKEDwVO4CGISKpaBULxITXAuuUr3B+/FBzf8iJYP6g2rc4Ds7Fh6He9s5hl2t94jGB2UEvgA=);whiteSpace=wrap;html=1;strokeWidth=10;strokeColor=#B09500;fillColor=#e3c800;flipV=0;flipH=0;fontColor=#000000;" parent="1" vertex="1">
          <mxGeometry x="-450" y="165" width="80" height="30" as="geometry" />
        </mxCell>
        <mxCell id="sHLZ-SZ676Q3P7wnUCrE-32" value="" style="shape=image;verticalLabelPosition=bottom;verticalAlign=top;imageAspect=0;aspect=fixed;image=data:image/svg+xml,PHN2ZyB4bWxucz0iaHR0cDovL3d3dy53My5vcmcvMjAwMC9zdmciIGlkPSJzdmc3MzYyIiB2ZXJzaW9uPSIxLjEiIHZpZXdCb3g9IjAgMCA3LjkzNzQ5NjIgMjMuODEyNTA0IiBoZWlnaHQ9IjIzLjgxMjUwNG1tIiB3aWR0aD0iNy45Mzc0OTYybW0iPiYjeGE7ICAmI3hhOyAgICAmI3hhOyAgJiN4YTsgIDxkZWZzIGlkPSJkZWZzNzM1OSIvPiYjeGE7ICA8ZyB0cmFuc2Zvcm09InRyYW5zbGF0ZSgtNDEuMDMxMDk1LC0zMy4wNzI5MTcpIiBpZD0ibGF5ZXI1Ij4mI3hhOyAgICA8ZyBpZD0ibGF5ZXI2Ij4mI3hhOyAgICAgIDxyZWN0IHJ5PSIyLjgyMjIyMjUiIHk9IjM0LjM5NTgzMiIgeD0iNDIuMzU0MDEyIiBoZWlnaHQ9IjIxLjE2NjY3IiB3aWR0aD0iNS4yOTE2NjY1IiBpZD0icmVjdDkxOC04IiBzdHlsZT0iZmlsbDojZmZmZmZmO3N0cm9rZTojMDAwMDAwO3N0cm9rZS13aWR0aDoyLjY0NTgzO3N0cm9rZS1saW5lY2FwOnJvdW5kO3N0cm9rZS1kYXNoYXJyYXk6bm9uZTtwYWludC1vcmRlcjpzdHJva2UgbWFya2VycyBmaWxsO3N0b3AtY29sb3I6IzAwMDAwMCIvPiYjeGE7ICAgIDwvZz4mI3hhOyAgPC9nPiYjeGE7PC9zdmc+;rotation=90;" parent="1" vertex="1">
          <mxGeometry x="-350" y="150" width="30" height="90" as="geometry" />
        </mxCell>
        <mxCell id="sHLZ-SZ676Q3P7wnUCrE-60" value="" style="endArrow=none;html=1;rounded=1;strokeWidth=10;strokeColor=#001DBC;fillColor=#0050ef;" parent="1" edge="1">
          <mxGeometry width="50" height="50" relative="1" as="geometry">
            <mxPoint x="-720" y="335" as="sourcePoint" />
            <mxPoint x="-680" y="335" as="targetPoint" />
          </mxGeometry>
        </mxCell>
        <mxCell id="sHLZ-SZ676Q3P7wnUCrE-62" value="" style="endArrow=none;html=1;rounded=1;strokeWidth=10;strokeColor=#B09500;fillColor=#e3c800;" parent="1" edge="1">
          <mxGeometry width="50" height="50" relative="1" as="geometry">
            <mxPoint x="-720" y="305" as="sourcePoint" />
            <mxPoint x="-680" y="305" as="targetPoint" />
          </mxGeometry>
        </mxCell>
        <mxCell id="sHLZ-SZ676Q3P7wnUCrE-63" value="Short reads" style="text;html=1;align=center;verticalAlign=middle;resizable=0;points=[];autosize=1;strokeColor=none;fillColor=none;" parent="1" vertex="1">
          <mxGeometry x="-690" y="290" width="90" height="30" as="geometry" />
        </mxCell>
        <mxCell id="sHLZ-SZ676Q3P7wnUCrE-64" value="Long reads" style="text;html=1;align=center;verticalAlign=middle;resizable=0;points=[];autosize=1;strokeColor=none;fillColor=none;" parent="1" vertex="1">
          <mxGeometry x="-685" y="320" width="80" height="30" as="geometry" />
        </mxCell>
        <mxCell id="sHLZ-SZ676Q3P7wnUCrE-67" value="fastp" style="text;html=1;align=center;verticalAlign=middle;resizable=0;points=[];autosize=1;strokeColor=none;fillColor=none;rotation=-35;" parent="1" vertex="1">
          <mxGeometry x="-590" y="165" width="50" height="30" as="geometry" />
        </mxCell>
        <mxCell id="sHLZ-SZ676Q3P7wnUCrE-68" value="bbmap" style="text;html=1;align=center;verticalAlign=middle;resizable=0;points=[];autosize=1;strokeColor=none;fillColor=none;rotation=-35;" parent="1" vertex="1">
          <mxGeometry x="-485" y="148" width="60" height="30" as="geometry" />
        </mxCell>
        <mxCell id="sHLZ-SZ676Q3P7wnUCrE-69" value="minimap2" style="text;html=1;align=center;verticalAlign=middle;resizable=0;points=[];autosize=1;strokeColor=none;fillColor=none;rotation=-35;" parent="1" vertex="1">
          <mxGeometry x="-530" y="243" width="80" height="30" as="geometry" />
        </mxCell>
        <mxCell id="sHLZ-SZ676Q3P7wnUCrE-70" value="" style="shape=image;verticalLabelPosition=bottom;verticalAlign=top;imageAspect=0;aspect=fixed;image=data:image/svg+xml,PHN2ZyB4bWxucz0iaHR0cDovL3d3dy53My5vcmcvMjAwMC9zdmciIGlkPSJzdmc3MzYyIiB2ZXJzaW9uPSIxLjEiIHZpZXdCb3g9IjAgMCA3LjkzNzQ5NjIgMjMuODEyNTA0IiBoZWlnaHQ9IjIzLjgxMjUwNG1tIiB3aWR0aD0iNy45Mzc0OTYybW0iPiYjeGE7ICAmI3hhOyAgICAmI3hhOyAgJiN4YTsgIDxkZWZzIGlkPSJkZWZzNzM1OSIvPiYjeGE7ICA8ZyB0cmFuc2Zvcm09InRyYW5zbGF0ZSgtNDEuMDMxMDk1LC0zMy4wNzI5MTcpIiBpZD0ibGF5ZXI1Ij4mI3hhOyAgICA8ZyBpZD0ibGF5ZXI2Ij4mI3hhOyAgICAgIDxyZWN0IHJ5PSIyLjgyMjIyMjUiIHk9IjM0LjM5NTgzMiIgeD0iNDIuMzU0MDEyIiBoZWlnaHQ9IjIxLjE2NjY3IiB3aWR0aD0iNS4yOTE2NjY1IiBpZD0icmVjdDkxOC04IiBzdHlsZT0iZmlsbDojZmZmZmZmO3N0cm9rZTojMDAwMDAwO3N0cm9rZS13aWR0aDoyLjY0NTgzO3N0cm9rZS1saW5lY2FwOnJvdW5kO3N0cm9rZS1kYXNoYXJyYXk6bm9uZTtwYWludC1vcmRlcjpzdHJva2UgbWFya2VycyBmaWxsO3N0b3AtY29sb3I6IzAwMDAwMCIvPiYjeGE7ICAgIDwvZz4mI3hhOyAgPC9nPiYjeGE7PC9zdmc+;rotation=90;" parent="1" vertex="1">
          <mxGeometry x="-350" y="118" width="30" height="90" as="geometry" />
        </mxCell>
        <mxCell id="sHLZ-SZ676Q3P7wnUCrE-73" value="" style="shape=image;verticalLabelPosition=bottom;verticalAlign=top;imageAspect=0;aspect=fixed;image=data:image/svg+xml,PHN2ZyB4bWxucz0iaHR0cDovL3d3dy53My5vcmcvMjAwMC9zdmciIGlkPSJzdmc3MzYyIiB2ZXJzaW9uPSIxLjEiIHZpZXdCb3g9IjAgMCA3LjkzNzQ5NjIgMjMuODEyNTA0IiBoZWlnaHQ9IjIzLjgxMjUwNG1tIiB3aWR0aD0iNy45Mzc0OTYybW0iPiYjeGE7ICAmI3hhOyAgICAmI3hhOyAgJiN4YTsgIDxkZWZzIGlkPSJkZWZzNzM1OSIvPiYjeGE7ICA8ZyB0cmFuc2Zvcm09InRyYW5zbGF0ZSgtNDEuMDMxMDk1LC0zMy4wNzI5MTcpIiBpZD0ibGF5ZXI1Ij4mI3hhOyAgICA8ZyBpZD0ibGF5ZXI2Ij4mI3hhOyAgICAgIDxyZWN0IHJ5PSIyLjgyMjIyMjUiIHk9IjM0LjM5NTgzMiIgeD0iNDIuMzU0MDEyIiBoZWlnaHQ9IjIxLjE2NjY3IiB3aWR0aD0iNS4yOTE2NjY1IiBpZD0icmVjdDkxOC04IiBzdHlsZT0iZmlsbDojZmZmZmZmO3N0cm9rZTojMDAwMDAwO3N0cm9rZS13aWR0aDoyLjY0NTgzO3N0cm9rZS1saW5lY2FwOnJvdW5kO3N0cm9rZS1kYXNoYXJyYXk6bm9uZTtwYWludC1vcmRlcjpzdHJva2UgbWFya2VycyBmaWxsO3N0b3AtY29sb3I6IzAwMDAwMCIvPiYjeGE7ICAgIDwvZz4mI3hhOyAgPC9nPiYjeGE7PC9zdmc+;rotation=90;" parent="1" vertex="1">
          <mxGeometry x="-350" y="215" width="30" height="90" as="geometry" />
        </mxCell>
        <mxCell id="sHLZ-SZ676Q3P7wnUCrE-74" value="" style="shape=image;verticalLabelPosition=bottom;verticalAlign=top;imageAspect=0;aspect=fixed;image=data:image/svg+xml,PHN2ZyB4bWxucz0iaHR0cDovL3d3dy53My5vcmcvMjAwMC9zdmciIGlkPSJzdmc3MzYyIiB2ZXJzaW9uPSIxLjEiIHZpZXdCb3g9IjAgMCA3LjkzNzQ5NjIgMjMuODEyNTA0IiBoZWlnaHQ9IjIzLjgxMjUwNG1tIiB3aWR0aD0iNy45Mzc0OTYybW0iPiYjeGE7ICAmI3hhOyAgICAmI3hhOyAgJiN4YTsgIDxkZWZzIGlkPSJkZWZzNzM1OSIvPiYjeGE7ICA8ZyB0cmFuc2Zvcm09InRyYW5zbGF0ZSgtNDEuMDMxMDk1LC0zMy4wNzI5MTcpIiBpZD0ibGF5ZXI1Ij4mI3hhOyAgICA8ZyBpZD0ibGF5ZXI2Ij4mI3hhOyAgICAgIDxyZWN0IHJ5PSIyLjgyMjIyMjUiIHk9IjM0LjM5NTgzMiIgeD0iNDIuMzU0MDEyIiBoZWlnaHQ9IjIxLjE2NjY3IiB3aWR0aD0iNS4yOTE2NjY1IiBpZD0icmVjdDkxOC04IiBzdHlsZT0iZmlsbDojZmZmZmZmO3N0cm9rZTojMDAwMDAwO3N0cm9rZS13aWR0aDoyLjY0NTgzO3N0cm9rZS1saW5lY2FwOnJvdW5kO3N0cm9rZS1kYXNoYXJyYXk6bm9uZTtwYWludC1vcmRlcjpzdHJva2UgbWFya2VycyBmaWxsO3N0b3AtY29sb3I6IzAwMDAwMCIvPiYjeGE7ICAgIDwvZz4mI3hhOyAgPC9nPiYjeGE7PC9zdmc+;rotation=90;" parent="1" vertex="1">
          <mxGeometry x="-350" y="183" width="30" height="90" as="geometry" />
        </mxCell>
        <mxCell id="sHLZ-SZ676Q3P7wnUCrE-80" value="SPAdes" style="text;html=1;align=center;verticalAlign=middle;resizable=0;points=[];autosize=1;strokeColor=none;fillColor=none;" parent="1" vertex="1">
          <mxGeometry x="-370" y="148" width="70" height="30" as="geometry" />
        </mxCell>
        <mxCell id="sHLZ-SZ676Q3P7wnUCrE-82" value="metaSPAdes" style="text;html=1;align=center;verticalAlign=middle;resizable=0;points=[];autosize=1;strokeColor=none;fillColor=none;" parent="1" vertex="1">
          <mxGeometry x="-380" y="180" width="90" height="30" as="geometry" />
        </mxCell>
        <mxCell id="sHLZ-SZ676Q3P7wnUCrE-83" value="Unicycler" style="text;html=1;align=center;verticalAlign=middle;resizable=0;points=[];autosize=1;strokeColor=none;fillColor=none;" parent="1" vertex="1">
          <mxGeometry x="-370" y="213" width="70" height="30" as="geometry" />
        </mxCell>
        <mxCell id="sHLZ-SZ676Q3P7wnUCrE-88" value="bbmap" style="text;html=1;align=center;verticalAlign=middle;resizable=0;points=[];autosize=1;strokeColor=none;fillColor=none;rotation=-35;" parent="1" vertex="1">
          <mxGeometry x="-450" y="445" width="60" height="30" as="geometry" />
        </mxCell>
        <mxCell id="sHLZ-SZ676Q3P7wnUCrE-96" value="PEAR" style="text;html=1;align=center;verticalAlign=middle;resizable=0;points=[];autosize=1;strokeColor=none;fillColor=none;rotation=-35;" parent="1" vertex="1">
          <mxGeometry x="-375" y="490" width="60" height="30" as="geometry" />
        </mxCell>
        <mxCell id="sHLZ-SZ676Q3P7wnUCrE-102" value="MMseqs2" style="text;html=1;align=center;verticalAlign=middle;resizable=0;points=[];autosize=1;strokeColor=none;fillColor=none;rotation=-40;" parent="1" vertex="1">
          <mxGeometry x="-160" y="321.25" width="80" height="30" as="geometry" />
        </mxCell>
        <mxCell id="sHLZ-SZ676Q3P7wnUCrE-106" value="DIAMOND&amp;nbsp;&lt;div&gt;blastX&lt;/div&gt;" style="text;html=1;align=center;verticalAlign=middle;resizable=0;points=[];autosize=1;strokeColor=none;fillColor=none;rotation=-35;" parent="1" vertex="1">
          <mxGeometry x="-40" y="311.25" width="80" height="40" as="geometry" />
        </mxCell>
        <mxCell id="sHLZ-SZ676Q3P7wnUCrE-109" value="" style="group" parent="1" vertex="1" connectable="0">
          <mxGeometry x="70" y="307.5" width="100" height="110" as="geometry" />
        </mxCell>
        <mxCell id="sHLZ-SZ676Q3P7wnUCrE-110" value="" style="shape=image;aspect=fixed;image=data:image/svg+xml,PD94bWwgdmVyc2lvbj0iMS4wIiBlbmNvZGluZz0iVVRGLTgiIHN0YW5kYWxvbmU9Im5vIj8+CjwhLS0gQ3JlYXRlZCB3aXRoIElua3NjYXBlIChodHRwOi8vd3d3Lmlua3NjYXBlLm9yZy8pIC0tPgoKPHN2ZwogICB3aWR0aD0iMjYuNDU4MzI2bW0iCiAgIGhlaWdodD0iMjkuMTA0Mm1tIgogICB2aWV3Qm94PSIwIDAgMjYuNDU4MzI2IDI5LjEwNDIiCiAgIHZlcnNpb249IjEuMSIKICAgaWQ9InN2ZzczNjIiCiAgIHhtbG5zPSJodHRwOi8vd3d3LnczLm9yZy8yMDAwL3N2ZyIKICAgeG1sbnM6c3ZnPSJodHRwOi8vd3d3LnczLm9yZy8yMDAwL3N2ZyI+CiAgPGRlZnMKICAgICBpZD0iZGVmczczNTkiIC8+CiAgPGcKICAgICBpZD0ibGF5ZXIxIgogICAgIHN0eWxlPSJkaXNwbGF5OmlubGluZSIKICAgICB0cmFuc2Zvcm09InRyYW5zbGF0ZSgzNC4zOTU4MzMsLTE5My4xNDU4NCkiPgogICAgPGcKICAgICAgIGlkPSJnMi0wLTQiCiAgICAgICB0cmFuc2Zvcm09InRyYW5zbGF0ZSgtMjE2Ljk1ODMzLDk3Ljg5NTg0MykiCiAgICAgICBzdHlsZT0iZGlzcGxheTppbmxpbmUiPgogICAgICA8ZwogICAgICAgICBpZD0iZzE4NDg4LTU0LTQtMS01IgogICAgICAgICB0cmFuc2Zvcm09InRyYW5zbGF0ZSg1OC4yMDgzMzQsMi42NDU4MzY5KSI+CiAgICAgICAgPHBhdGgKICAgICAgICAgICBpZD0icGF0aDYyNzYtNC00LTY1LTUtOSIKICAgICAgICAgICBzdHlsZT0iZmlsbDojZmZmZmZmO3N0cm9rZS13aWR0aDowLjIzMDcwMiIKICAgICAgICAgICBkPSJtIDEzMi4yOTE2Niw5My45MjcwNzIgdiAyMS4xNjY2NjggaCAxNS44NzUwMSBWIDk5LjIxODc0OCBsIC01LjI5MTY4LC01LjI5MTY3NiB6IiAvPgogICAgICAgIDxwYXRoCiAgICAgICAgICAgaWQ9InBhdGg1ODYyLTEtMy00LTYiCiAgICAgICAgICAgZD0ibSAxNDkuNDg5NTgsOTcuODk1ODMyIGMgMCwtMC4yNjQ1NzYgLTAuMjY0NTgsLTAuNTI5MTY0IC0wLjUyOTE3LC0wLjc5Mzc1MiBsIC00LjQ5NzkxLC0zLjk2ODc0OCBjIC0wLjI2NDU4LC0wLjI2NDU4OCAtMC41MjkxNywtMC41MjkxNjQgLTAuODI3ODgsLTAuNTI5MTY0IGwgLTYuMDUxMjksLTEuM2UtNSAtNS4yOTE2NywxLjNlLTUgYyAtMC43OTM3NSwyZS02IC0xLjMyMjkyLDAuNTI5MTY0IC0xLjMyMjkyLDEuMzIyOTE2IHYgMjEuMTY2NjY2IGMgMCwwLjc5Mzc1IDAuNTI5MTcsMS4zMjI5MiAxLjMyMjkyLDEuMzIyOTIgaCA3LjkzNzUxIDcuOTM3NSBjIDAuNzkzNzQsMCAxLjMyMjkxLC0wLjUyOTE3IDEuMzIyOTEsLTEuMzIyOTIgeiBtIC0xLjMyMjkxLDE3LjE5NzkxOCBIIDEzMi4yOTE2NiBWIDkzLjkyNzA4NCBoIDEwLjU4MzMzIHYgNC43NjI1IGMgMCwwLjMxNzUwOCAwLjIwMzUzLDAuNTI5MTY0IDAuNTI5MTcsMC41MjkxNjQgaCA0Ljc2MjUxIHoiCiAgICAgICAgICAgc3R5bGU9InN0cm9rZS13aWR0aDowLjIzMTY3IiAvPgogICAgICAgIDxwYXRoCiAgICAgICAgICAgaWQ9InJlY3QxODM0Ny0yLTYtNi0wIgogICAgICAgICAgIHN0eWxlPSJmaWxsLXJ1bGU6ZXZlbm9kZDtzdHJva2Utd2lkdGg6MC4xMjIwMjc7cGFpbnQtb3JkZXI6ZmlsbCBtYXJrZXJzIHN0cm9rZSIKICAgICAgICAgICBkPSJtIDEzMS4wMTc1MiwxMDEuODY0NiBoIDE4LjQyMzI2IGMgMC43NTk5MywwIDEuMzcxNzEsMC40OTcwNiAxLjM3MTcxLDEuMTE0NSB2IDQuMTc3MTQgMS41MzEzMyBjIDAsMC42MTc0NCAtMC42MTE3OCwxLjExNDUgLTEuMzcxNzEsMS4xMTQ1IGggLTE4LjQyMzI2IGMgLTAuNzU5OTIsMCAtMS4zNzE3LC0wLjQ5NzA2IC0xLjM3MTcsLTEuMTE0NSB2IC0yLjg1NDI1IC0yLjg1NDIyIGMgMCwtMC42MTc0NCAwLjYxMTc4LC0xLjExNDUgMS4zNzE3LC0xLjExNDUgeiIgLz4KICAgICAgICA8dGV4dAogICAgICAgICAgIHhtbDpzcGFjZT0icHJlc2VydmUiCiAgICAgICAgICAgc3R5bGU9ImZvbnQtd2VpZ2h0OmJvbGQ7Zm9udC1zaXplOjUuMjkxNjdweDtmb250LWZhbWlseTonTWF2ZW4gUHJvJzstaW5rc2NhcGUtZm9udC1zcGVjaWZpY2F0aW9uOidNYXZlbiBQcm8sIEJvbGQnO3RleHQtYWxpZ246Y2VudGVyO3RleHQtb3JpZW50YXRpb246dXByaWdodDt0ZXh0LWFuY2hvcjptaWRkbGU7ZmlsbDojZmZmZmZmO2ZpbGwtb3BhY2l0eToxO3N0cm9rZTpub25lO3N0cm9rZS13aWR0aDowLjIyNzk1MTtzdHJva2UtbGluZWNhcDpyb3VuZDtzdHJva2UtbGluZWpvaW46bWl0ZXI7c3Ryb2tlLW1pdGVybGltaXQ6MC42O3N0cm9rZS1kYXNoYXJyYXk6bm9uZTtzdHJva2UtZGFzaG9mZnNldDoyLjAwMDAxO3N0cm9rZS1vcGFjaXR5OjE7cGFpbnQtb3JkZXI6ZmlsbCBtYXJrZXJzIHN0cm9rZTtzdG9wLWNvbG9yOiMwMDAwMDAiCiAgICAgICAgICAgeD0iMTQwLjMzODk2IgogICAgICAgICAgIHk9IjEwNy4yMTE4IgogICAgICAgICAgIGlkPSJ0ZXh0MTg1NjktNi00MS0zLTIiPjx0c3BhbgogICAgICAgICAgICAgaWQ9InRzcGFuMTg1NjctNDItNS0xLTYiCiAgICAgICAgICAgICBzdHlsZT0iZmlsbDojZmZmZmZmO2ZpbGwtb3BhY2l0eToxO3N0cm9rZTpub25lO3N0cm9rZS13aWR0aDowLjIyNzk1MSIKICAgICAgICAgICAgIHg9IjE0MC4zMzg5NiIKICAgICAgICAgICAgIHk9IjEwNy4yMTE4Ij5mYXN0cTwvdHNwYW4+PC90ZXh0PgogICAgICA8L2c+CiAgICAgIDxnCiAgICAgICAgIGlkPSJnMTg0ODgtNTQtOC0wLTMtNiIKICAgICAgICAgdHJhbnNmb3JtPSJ0cmFuc2xhdGUoNTUuNTYyNTA0LDUuMjkxNjYyNCkiPgogICAgICAgIDxwYXRoCiAgICAgICAgICAgaWQ9InBhdGg2Mjc2LTQtNC02LTktMDYtMSIKICAgICAgICAgICBzdHlsZT0iZmlsbDojZmZmZmZmO3N0cm9rZS13aWR0aDowLjIzMDcwMiIKICAgICAgICAgICBkPSJtIDEzMi4yOTE2Niw5My45MjcwNzIgdiAyMS4xNjY2NjggaCAxNS44NzUwMSBWIDk5LjIxODc0OCBsIC01LjI5MTY4LC01LjI5MTY3NiB6IiAvPgogICAgICAgIDxwYXRoCiAgICAgICAgICAgaWQ9InBhdGg1ODYyLTEtMS0zLTgtMCIKICAgICAgICAgICBkPSJtIDE0OS40ODk1OCw5Ny44OTU4MzIgYyAwLC0wLjI2NDU3NiAtMC4yNjQ1OCwtMC41MjkxNjQgLTAuNTI5MTcsLTAuNzkzNzUyIGwgLTQuNDk3OTEsLTMuOTY4NzQ4IGMgLTAuMjY0NTgsLTAuMjY0NTg4IC0wLjUyOTE3LC0wLjUyOTE2NCAtMC44Mjc4OCwtMC41MjkxNjQgaCAtMy40MDU0NSAtNy45Mzc1MSBjIC0wLjc5Mzc1LDAgLTEuMzIyOTIsMC41MjkxNjQgLTEuMzIyOTIsMS4zMjI5MTYgMCw3LjA1NTU1NiAwLDE0LjExMTEwNiAwLDIxLjE2NjY2NiAwLDAuNzkzNzUgMC41MjkxNywxLjMyMjkyIDEuMzIyOTIsMS4zMjI5MiBoIDcuOTM3NTEgNy45Mzc1IGMgMC43OTM3NCwwIDEuMzIyOTEsLTAuNTI5MTcgMS4zMjI5MSwtMS4zMjI5MiB6IG0gLTEuMzIyOTEsMTcuMTk3OTE4IEggMTMyLjI5MTY2IFYgOTMuOTI3MDg0IGggMTAuNTgzMzMgdiA0Ljc2MjUgYyAwLDAuMzE3NTA4IDAuMjAzNTMsMC41MjkxNjQgMC41MjkxNywwLjUyOTE2NCBoIDQuNzYyNTEgeiIKICAgICAgICAgICBzdHlsZT0ic3Ryb2tlLXdpZHRoOjAuMjMxNjciIC8+CiAgICAgICAgPHBhdGgKICAgICAgICAgICBpZD0icmVjdDE4MzQ3LTItNS0xLTAtNiIKICAgICAgICAgICBzdHlsZT0iZmlsbC1ydWxlOmV2ZW5vZGQ7c3Ryb2tlLXdpZHRoOjAuMTIyMDI3O3BhaW50LW9yZGVyOmZpbGwgbWFya2VycyBzdHJva2UiCiAgICAgICAgICAgZD0ibSAxMzEuMDE3NTIsMTAxLjg2NDYgYyA2LjE0MTA5LDAgMTIuMjgyMTcsMCAxOC40MjMyNiwwIDAuNzU5OTMsMCAxLjM3MTcxLDAuNDk3MDYgMS4zNzE3MSwxLjExNDUgdiAyLjg1NDIyIDIuODU0MjUgYyAwLDAuNjE3NDQgLTAuNjExNzgsMS4xMTQ1IC0xLjM3MTcxLDEuMTE0NSAtNi4xNDEwOSwwIC0xMi4yODIxNywwIC0xOC40MjMyNiwwIC0wLjc1OTkyLDAgLTEuMzcxNywtMC40OTcwNiAtMS4zNzE3LC0xLjExNDUgdiAtMi44NTQyNSAtMi44NTQyMiBjIDAsLTAuNjE3NDQgMC42MTE3OCwtMS4xMTQ1IDEuMzcxNywtMS4xMTQ1IHoiIC8+CiAgICAgICAgPHRleHQKICAgICAgICAgICB4bWw6c3BhY2U9InByZXNlcnZlIgogICAgICAgICAgIHN0eWxlPSJmb250LXdlaWdodDpib2xkO2ZvbnQtc2l6ZTo1LjI5MTY3cHg7Zm9udC1mYW1pbHk6J01hdmVuIFBybyc7LWlua3NjYXBlLWZvbnQtc3BlY2lmaWNhdGlvbjonTWF2ZW4gUHJvLCBCb2xkJzt0ZXh0LWFsaWduOmNlbnRlcjt0ZXh0LW9yaWVudGF0aW9uOnVwcmlnaHQ7dGV4dC1hbmNob3I6bWlkZGxlO2ZpbGw6I2ZmZmZmZjtmaWxsLW9wYWNpdHk6MTtzdHJva2U6bm9uZTtzdHJva2Utd2lkdGg6MC4yMjc5NTE7c3Ryb2tlLWxpbmVjYXA6cm91bmQ7c3Ryb2tlLWxpbmVqb2luOm1pdGVyO3N0cm9rZS1taXRlcmxpbWl0OjAuNjtzdHJva2UtZGFzaGFycmF5Om5vbmU7c3Ryb2tlLWRhc2hvZmZzZXQ6Mi4wMDAwMTtzdHJva2Utb3BhY2l0eToxO3BhaW50LW9yZGVyOmZpbGwgbWFya2VycyBzdHJva2U7c3RvcC1jb2xvcjojMDAwMDAwIgogICAgICAgICAgIHg9IjE0MC4zMzg5NiIKICAgICAgICAgICB5PSIxMDcuMjExOCIKICAgICAgICAgICBpZD0idGV4dDE4NTY5LTYtNC03LTItNyI+PHRzcGFuCiAgICAgICAgICAgICBpZD0idHNwYW4xODU2Ny00Mi0xLTUtNzEtMCIKICAgICAgICAgICAgIHN0eWxlPSJmaWxsOiNmZmZmZmY7ZmlsbC1vcGFjaXR5OjE7c3Ryb2tlOm5vbmU7c3Ryb2tlLXdpZHRoOjAuMjI3OTUxIgogICAgICAgICAgICAgeD0iMTQwLjMzODk2IgogICAgICAgICAgICAgeT0iMTA3LjIxMTgiPmZhc3RxPC90c3Bhbj48L3RleHQ+CiAgICAgIDwvZz4KICAgICAgPGcKICAgICAgICAgaWQ9ImcxODQ4OC01NC04LTAtOC02LTQiCiAgICAgICAgIHRyYW5zZm9ybT0idHJhbnNsYXRlKDUyLjkxNjY3NSw3LjkzNzUxNjIpIj4KICAgICAgICA8cGF0aAogICAgICAgICAgIGlkPSJwYXRoNjI3Ni00LTQtNi05LTAtMi0zIgogICAgICAgICAgIHN0eWxlPSJmaWxsOiNmZmZmZmY7c3Ryb2tlLXdpZHRoOjAuMjMwNzAyIgogICAgICAgICAgIGQ9Im0gMTMyLjI5MTY2LDkzLjkyNzA3MiB2IDIxLjE2NjY2OCBoIDE1Ljg3NTAxIFYgOTkuMjE4NzQ4IGwgLTUuMjkxNjgsLTUuMjkxNjc2IHoiIC8+CiAgICAgICAgPHBhdGgKICAgICAgICAgICBpZD0icGF0aDU4NjItMS0xLTMtOS04LTAiCiAgICAgICAgICAgZD0ibSAxNDkuNDg5NTgsOTcuODk1ODMyIGMgMCwtMC4yNjQ1NzYgLTAuMjY0NTgsLTAuNTI5MTY0IC0wLjUyOTE3LC0wLjc5Mzc1MiBsIC00LjQ5NzkxLC0zLjk2ODc0OCBjIC0wLjI2NDU4LC0wLjI2NDU4OCAtMC41MjkxNywtMC41MjkxNjQgLTAuODI3ODgsLTAuNTI5MTY0IGggLTMuNDA1NDUgLTcuOTM3NTEgYyAtMC43OTM3NSwwIC0xLjMyMjkyLDAuNTI5MTY0IC0xLjMyMjkyLDEuMzIyOTE2IHYgNy45Mzc0NzYgMTMuMjI5MTkgYyAwLDAuNzkzNzUgMC41MjkxNywxLjMyMjkyIDEuMzIyOTIsMS4zMjI5MiBsIDEwLjU4MzMzLC0zZS01IDUuMjkxNjgsM2UtNSBjIDAuNzkzNzQsMCAxLjMyMjkxLC0wLjUyOTE3IDEuMzIyOTEsLTEuMzIyOTIgeiBtIC0xLjMyMjkxLDE3LjE5NzkxOCBIIDEzMi4yOTE2NiBWIDkzLjkyNzA4NCBoIDEwLjU4MzMzIHYgNC43NjI1IGMgMCwwLjMxNzUwOCAwLjIwMzUzLDAuNTI5MTY0IDAuNTI5MTcsMC41MjkxNjQgaCA0Ljc2MjUxIHoiCiAgICAgICAgICAgc3R5bGU9InN0cm9rZS13aWR0aDowLjIzMTY3IiAvPgogICAgICAgIDxwYXRoCiAgICAgICAgICAgaWQ9InJlY3QxODM0Ny0yLTUtMS02LTItMCIKICAgICAgICAgICBzdHlsZT0iZmlsbC1ydWxlOmV2ZW5vZGQ7c3Ryb2tlLXdpZHRoOjAuMTIyMDI3O3BhaW50LW9yZGVyOmZpbGwgbWFya2VycyBzdHJva2UiCiAgICAgICAgICAgZD0ibSAxMzEuMDE3NTIsMTAxLjg2NDYgYyA2LjE0MTA5LDAgMTIuMjgyMTcsMCAxOC40MjMyNiwwIDAuNzU5OTMsMCAxLjM3MTcxLDAuNDk3MDYgMS4zNzE3MSwxLjExNDUgdiAyLjg1NDIyIDIuODU0MjUgYyAwLDAuNjE3NDQgLTAuNjExNzgsMS4xMTQ1IC0xLjM3MTcxLDEuMTE0NSAtNi4xNDEwOSwwIC0xMi4yODIxNywwIC0xOC40MjMyNiwwIC0wLjc1OTkyLDAgLTEuMzcxNywtMC40OTcwNiAtMS4zNzE3LC0xLjExNDUgdiAtMi44NTQyNSAtMi44NTQyMiBjIDAsLTAuNjE3NDQgMC42MTE3OCwtMS4xMTQ1IDEuMzcxNywtMS4xMTQ1IHoiIC8+CiAgICAgIDwvZz4KICAgIDwvZz4KICA8L2c+Cjwvc3ZnPgo=;" parent="sHLZ-SZ676Q3P7wnUCrE-109" vertex="1">
          <mxGeometry width="100" height="110" as="geometry" />
        </mxCell>
        <mxCell id="sHLZ-SZ676Q3P7wnUCrE-111" value="&lt;font style=&quot;font-size: 15px;&quot; color=&quot;#ffffff&quot; data-font-src=&quot;https://fonts.googleapis.com/css?family=Maven+Pro&quot; face=&quot;Maven Pro&quot;&gt;&lt;b style=&quot;&quot;&gt;Reports&lt;/b&gt;&lt;/font&gt;" style="text;html=1;strokeColor=none;fillColor=none;align=center;verticalAlign=middle;whiteSpace=wrap;rounded=0;" parent="sHLZ-SZ676Q3P7wnUCrE-109" vertex="1">
          <mxGeometry x="10" y="55" width="60" height="30" as="geometry" />
        </mxCell>
        <mxCell id="sHLZ-SZ676Q3P7wnUCrE-120" value="&lt;span style=&quot;color: rgba(0, 0, 0, 0); font-family: monospace; font-size: 0px; font-style: normal; font-variant-ligatures: normal; font-variant-caps: normal; font-weight: 400; letter-spacing: normal; orphans: 2; text-align: start; text-indent: 0px; text-transform: none; widows: 2; word-spacing: 0px; -webkit-text-stroke-width: 0px; white-space: nowrap; background-color: rgb(236, 236, 236); text-decoration-thickness: initial; text-decoration-style: initial; text-decoration-color: initial; display: inline !important; float: none;&quot;&gt;&amp;nbsp;&lt;/span&gt;" style="text;whiteSpace=wrap;html=1;" parent="1" vertex="1">
          <mxGeometry x="-130" y="345" width="30" height="40" as="geometry" />
        </mxCell>
        <mxCell id="sHLZ-SZ676Q3P7wnUCrE-130" value="Trimming, host removal, &amp;amp; filtering" style="text;html=1;align=center;verticalAlign=middle;resizable=0;points=[];autosize=1;strokeColor=none;fillColor=none;fontStyle=1" parent="1" vertex="1">
          <mxGeometry x="-770" y="120" width="210" height="30" as="geometry" />
        </mxCell>
        <mxCell id="sHLZ-SZ676Q3P7wnUCrE-131" value="&lt;b&gt;&lt;i&gt;De novo &lt;/i&gt;assembly&lt;/b&gt;" style="text;html=1;align=center;verticalAlign=middle;resizable=0;points=[];autosize=1;strokeColor=none;fillColor=none;" parent="1" vertex="1">
          <mxGeometry x="-400" y="120" width="130" height="30" as="geometry" />
        </mxCell>
        <mxCell id="sHLZ-SZ676Q3P7wnUCrE-132" value="&lt;b&gt;Extract &amp;amp; stitch&amp;nbsp;&lt;/b&gt;&lt;div&gt;&lt;b&gt;paired-end reads&lt;/b&gt;&lt;/div&gt;" style="text;html=1;align=center;verticalAlign=middle;resizable=0;points=[];autosize=1;strokeColor=none;fillColor=none;" parent="1" vertex="1">
          <mxGeometry x="-500" y="490" width="120" height="40" as="geometry" />
        </mxCell>
        <mxCell id="sHLZ-SZ676Q3P7wnUCrE-146" value="" style="shape=image;verticalLabelPosition=bottom;verticalAlign=top;imageAspect=0;aspect=0;image=data:image/svg+xml,PHN2ZyB4bWxucz0iaHR0cDovL3d3dy53My5vcmcvMjAwMC9zdmciIGlkPSJzdmc3MzYyIiB2ZXJzaW9uPSIxLjEiIHZpZXdCb3g9IjAgMCA2LjYxNTEwMDkgNy45Mzc1IiBoZWlnaHQ9IjcuOTM3NW1tIiB3aWR0aD0iNi42MTUxMDA5bW0iPiYjeGE7ICAmI3hhOyAgICAmI3hhOyAgJiN4YTsgIDxkZWZzIGlkPSJkZWZzNzM1OSIvPiYjeGE7ICA8ZyB0cmFuc2Zvcm09InRyYW5zbGF0ZSgtNjAuODUzNjUxLC01Mi45MTYxNDgpIiBpZD0ibGF5ZXI5Ij4mI3hhOyAgICA8cGF0aCBkPSJtIDYwLjg1MzY1LDUyLjkxNjE1IHYgNy45Mzc1IEggNjMuNSBMIDY3LjQ2ODc1LDU2Ljg4NTQxNyA2My41LDUyLjkxNjY2NyB2IC01LjE3ZS00IHoiIHN0eWxlPSJjb2xvcjojMDAwMDAwO2ZpbGw6IzAwMDAwMCIgaWQ9InBhdGgyNTAwLTUtMjItMiIvPiYjeGE7ICA8L2c+JiN4YTs8L3N2Zz4=;points=[[0,0.5,0,0,0],[0.78,0.5,0,0,0],[1,0.5,0,0,0]];rotation=90;imageBackground=none;imageBorder=none;" parent="1" vertex="1">
          <mxGeometry x="-289.99999999999994" y="290" width="30" height="30" as="geometry" />
        </mxCell>
        <mxCell id="sHLZ-SZ676Q3P7wnUCrE-147" value="" style="group" parent="1" vertex="1" connectable="0">
          <mxGeometry x="-325" y="320" width="80" height="140" as="geometry" />
        </mxCell>
        <mxCell id="sHLZ-SZ676Q3P7wnUCrE-148" value="" style="shape=image;aspect=fixed;image=data:image/svg+xml,PD94bWwgdmVyc2lvbj0iMS4wIiBlbmNvZGluZz0iVVRGLTgiIHN0YW5kYWxvbmU9Im5vIj8+CjwhLS0gQ3JlYXRlZCB3aXRoIElua3NjYXBlIChodHRwOi8vd3d3Lmlua3NjYXBlLm9yZy8pIC0tPgoKPHN2ZwogICB3aWR0aD0iMjEuMTY2NjdtbSIKICAgaGVpZ2h0PSIyMy44MTI1MDJtbSIKICAgdmlld0JveD0iMCAwIDIxLjE2NjY3IDIzLjgxMjUwMiIKICAgdmVyc2lvbj0iMS4xIgogICBpZD0ic3ZnNzM2MiIKICAgeG1sbnM9Imh0dHA6Ly93d3cudzMub3JnLzIwMDAvc3ZnIgogICB4bWxuczpzdmc9Imh0dHA6Ly93d3cudzMub3JnLzIwMDAvc3ZnIj4KICA8ZGVmcwogICAgIGlkPSJkZWZzNzM1OSIgLz4KICA8ZwogICAgIGlkPSJsYXllcjEiCiAgICAgc3R5bGU9ImRpc3BsYXk6aW5saW5lIgogICAgIHRyYW5zZm9ybT0idHJhbnNsYXRlKDM3LjA0MTY3MywtMTQwLjIyOTE3KSI+CiAgICA8ZwogICAgICAgaWQ9ImcxODQ4OC0zLTIiCiAgICAgICB0cmFuc2Zvcm09InRyYW5zbGF0ZSgtMTY2LjY4NzQ5LDQ3LjYyNDk5NykiCiAgICAgICBzdHlsZT0iZGlzcGxheTppbmxpbmUiPgogICAgICA8cGF0aAogICAgICAgICBpZD0icGF0aDYyNzYtNC0wLTYiCiAgICAgICAgIHN0eWxlPSJmaWxsOiNmZmZmZmY7c3Ryb2tlLXdpZHRoOjAuMjMwNzAyIgogICAgICAgICBkPSJtIDEzMi4yOTE2Niw5My45MjcwNzIgdiAyMS4xNjY2NjggaCAxNS44NzUwMSBWIDk5LjIxODc0OCBsIC01LjI5MTY4LC01LjI5MTY3NiB6IiAvPgogICAgICA8cGF0aAogICAgICAgICBpZD0icGF0aDU4NjItMy03IgogICAgICAgICBkPSJtIDE0OS40ODk1OCw5Ny44OTU4MzIgYyAwLC0wLjI2NDU3NiAtMC4yNjQ1OCwtMC41MjkxNjQgLTAuNTI5MTcsLTAuNzkzNzUyIGwgLTQuNDk3OTEsLTMuOTY4NzQ4IGMgLTAuMjY0NTgsLTAuMjY0NTg4IC0wLjUyOTE3LC0wLjUyOTE2NCAtMC44Mjc4OCwtMC41MjkxNjQgaCAtMy40MDU0NSAtNy45Mzc1MSBjIC0wLjc5Mzc1LDAgLTEuMzIyOTIsMC41MjkxNjQgLTEuMzIyOTIsMS4zMjI5MTYgMCw3LjA1NTU1NiAwLDE0LjExMTEwNiAwLDIxLjE2NjY2NiAwLDAuNzkzNzUgMC41MjkxNywxLjMyMjkyIDEuMzIyOTIsMS4zMjI5MiBoIDcuOTM3NTEgNy45Mzc1IGMgMC43OTM3NCwwIDEuMzIyOTEsLTAuNTI5MTcgMS4zMjI5MSwtMS4zMjI5MiB6IG0gLTEuMzIyOTEsMTcuMTk3OTE4IEggMTMyLjI5MTY2IFYgOTMuOTI3MDg0IGggMTAuNTgzMzMgdiA0Ljc2MjUgYyAwLDAuMzE3NTA4IDAuMjAzNTMsMC41MjkxNjQgMC41MjkxNywwLjUyOTE2NCBoIDQuNzYyNTEgeiIKICAgICAgICAgc3R5bGU9InN0cm9rZS13aWR0aDowLjIzMTY3IiAvPgogICAgICA8cGF0aAogICAgICAgICBpZD0icmVjdDE4MzQ3LTYtMSIKICAgICAgICAgc3R5bGU9ImZpbGwtcnVsZTpldmVub2RkO3N0cm9rZS13aWR0aDowLjEyMjAyNztwYWludC1vcmRlcjpmaWxsIG1hcmtlcnMgc3Ryb2tlIgogICAgICAgICBkPSJtIDEzMS4wMTc1MiwxMDEuODY0NiBjIDYuMTQxMDksMCAxMi4yODIxNywwIDE4LjQyMzI2LDAgMC43NTk5MywwIDEuMzcxNzEsMC40OTcwNiAxLjM3MTcxLDEuMTE0NSB2IDIuODU0MjIgMi44NTQyNSBjIDAsMC42MTc0NCAtMC42MTE3OCwxLjExNDUgLTEuMzcxNzEsMS4xMTQ1IC02LjE0MTA5LDAgLTEyLjI4MjE3LDAgLTE4LjQyMzI2LDAgLTAuNzU5OTIsMCAtMS4zNzE3LC0wLjQ5NzA2IC0xLjM3MTcsLTEuMTE0NSB2IC0yLjg1NDI1IC0yLjg1NDIyIGMgMCwtMC42MTc0NCAwLjYxMTc4LC0xLjExNDUgMS4zNzE3LC0xLjExNDUgeiIgLz4KICAgIDwvZz4KICA8L2c+Cjwvc3ZnPgo=;" parent="sHLZ-SZ676Q3P7wnUCrE-147" vertex="1">
          <mxGeometry width="80" height="90" as="geometry" />
        </mxCell>
        <mxCell id="sHLZ-SZ676Q3P7wnUCrE-149" value="&lt;font style=&quot;font-size: 13px;&quot; color=&quot;#ffffff&quot; data-font-src=&quot;https://fonts.googleapis.com/css?family=Maven+Pro&quot; face=&quot;Maven Pro&quot;&gt;&lt;b style=&quot;&quot;&gt;viral contigs.fa&lt;/b&gt;&lt;/font&gt;" style="text;html=1;strokeColor=none;fillColor=none;align=center;verticalAlign=middle;whiteSpace=wrap;rounded=0;" parent="sHLZ-SZ676Q3P7wnUCrE-147" vertex="1">
          <mxGeometry x="10" y="35" width="60" height="30" as="geometry" />
        </mxCell>
        <mxCell id="sHLZ-SZ676Q3P7wnUCrE-89" value="minimap2" style="text;html=1;align=left;verticalAlign=middle;resizable=0;points=[];autosize=1;strokeColor=none;fillColor=none;rotation=-30;" parent="1" vertex="1">
          <mxGeometry x="-340" y="430" width="80" height="30" as="geometry" />
        </mxCell>
        <mxCell id="sHLZ-SZ676Q3P7wnUCrE-157" value="" style="endArrow=none;html=1;rounded=0;strokeWidth=10;strokeColor=#005700;fillColor=#008a00;" parent="1" edge="1">
          <mxGeometry width="50" height="50" relative="1" as="geometry">
            <mxPoint x="-370" y="461" as="sourcePoint" />
            <mxPoint x="-370" y="510" as="targetPoint" />
          </mxGeometry>
        </mxCell>
        <mxCell id="sHLZ-SZ676Q3P7wnUCrE-87" value="" style="shape=image;verticalLabelPosition=bottom;verticalAlign=top;imageAspect=0;aspect=fixed;image=data:image/svg+xml,PHN2ZyB4bWxucz0iaHR0cDovL3d3dy53My5vcmcvMjAwMC9zdmciIGlkPSJzdmc3MzYyIiB2ZXJzaW9uPSIxLjEiIHZpZXdCb3g9IjAgMCA3LjkzNzQ5NjIgMTUuODc1IiBoZWlnaHQ9IjE1Ljg3NW1tIiB3aWR0aD0iNy45Mzc0OTYybW0iPiYjeGE7ICAmI3hhOyAgICAmI3hhOyAgJiN4YTsgIDxkZWZzIGlkPSJkZWZzNzM1OSIvPiYjeGE7ICA8ZyB0cmFuc2Zvcm09InRyYW5zbGF0ZSgtMjIuNDg5NTg2LC05My45MjcwODMpIiBpZD0ibGF5ZXI1Ij4mI3hhOyAgICA8ZyBpZD0ibGF5ZXI4Ij4mI3hhOyAgICAgIDxwYXRoIGQ9Im0gMjYuNDU4MzMzLDk1LjI1IGEgMi42NDU4MzMzLDIuNjQ1ODMzMyAwIDAgMCAtMi42NDU4MzMsMi42NDU4MzMgMi42NDU4MzMzLDIuNjQ1ODMzMyAwIDAgMCAxLjMyMjkxNywyLjI5MTMzNyB2IDMuMzU0ODMgYSAyLjY0NTgzMzMsMi42NDU4MzMzIDAgMCAwIC0xLjMyMjkxNywyLjI5MTMzIDIuNjQ1ODMzMywyLjY0NTgzMzMgMCAwIDAgMi42NDU4MzMsMi42NDU4NCAyLjY0NTgzMzMsMi42NDU4MzMzIDAgMCAwIDIuNjQ1ODM0LC0yLjY0NTg0IDIuNjQ1ODMzMywyLjY0NTgzMzMgMCAwIDAgLTEuMzIyOTE3LC0yLjI5MTMzIHYgLTMuMzU0ODMgQSAyLjY0NTgzMzMsMi42NDU4MzMzIDAgMCAwIDI5LjEwNDE2Nyw5Ny44OTU4MzMgMi42NDU4MzMzLDIuNjQ1ODMzMyAwIDAgMCAyNi40NTgzMzMsOTUuMjUgWiIgc3R5bGU9ImZpbGw6I2ZmZmZmZjtzdHJva2U6IzAwMDAwMDtzdHJva2Utd2lkdGg6Mi42NDU4MztzdHJva2UtbGluZWNhcDpyb3VuZDtzdHJva2UtbWl0ZXJsaW1pdDo0O3N0cm9rZS1kYXNoYXJyYXk6bm9uZTtwYWludC1vcmRlcjpzdHJva2UgbWFya2VycyBmaWxsO3N0b3AtY29sb3I6IzAwMDAwMCIgaWQ9InBhdGgzNDQ3LTYtMjUiLz4mI3hhOyAgICA8L2c+JiN4YTsgIDwvZz4mI3hhOzwvc3ZnPg==;rotation=90;points=[[0.1,0.25,0,0,0],[0.1,0.75,0,0,0],[0.5,0,0,0,0],[0.5,1,0,0,0],[0.9,0.25,0,0,0],[0.9,0.75,0,0,0]];" parent="1" vertex="1">
          <mxGeometry x="-385" y="430" width="30" height="60" as="geometry" />
        </mxCell>
        <mxCell id="sHLZ-SZ676Q3P7wnUCrE-176" value="" style="endArrow=none;html=1;rounded=0;strokeWidth=10;strokeColor=#005700;fillColor=#008a00;" parent="1" edge="1">
          <mxGeometry width="50" height="50" relative="1" as="geometry">
            <mxPoint x="-245" y="370" as="sourcePoint" />
            <mxPoint x="-165" y="370" as="targetPoint" />
          </mxGeometry>
        </mxCell>
        <mxCell id="sHLZ-SZ676Q3P7wnUCrE-177" value="" style="shape=stencil(nVTbboMwDP0aHhs5NiHwOLHtP1ibrtFoQIFe9vczJGiL2m5rrbxwbB/7OCYZ1cOu6U2G0Ay9WY8ZPWeIx8bb5q1lGNmzC6DMhWSDPKCngGIpcDIZ0GH03Yc52c0Ys6zbGW/HyUsvGTxxzHSoXnfOcUHbuSHx/PAzWWMd58I5kEEo8hkbCl898+/NaHyCZvj6b1qZ0MI9tFQzcksK1dvOm3ffHdzmajNb27ZhYr903DfTLC8ci3vfHc23lFzoIi/LiswKdDqt9PquV1tIW+tSUqCiosf51gcfupQhWYtCapCoIqW8ynnGCINQJbHF6AWWQqsK8zJGU0qiIBrGNFpqg5qtivaIAMkKiOcsUwEoSMkyX7ZlEYAgNCpQMhWwAgFASuWFTiUgCaZRUqedc/j9l7f8oOnt/UE1r/WNxeMn49bKzmkXOz+j4ZmZgS8=);whiteSpace=wrap;html=1;strokeWidth=10;fillColor=#008a00;strokeColor=#005700;rotation=-180;fontColor=#ffffff;flipV=1;flipH=1;" parent="1" vertex="1">
          <mxGeometry x="-366.48" y="375.88" width="204.08" height="154.48" as="geometry" />
        </mxCell>
        <mxCell id="sHLZ-SZ676Q3P7wnUCrE-95" value="" style="shape=image;verticalLabelPosition=bottom;verticalAlign=top;imageAspect=0;aspect=fixed;image=data:image/svg+xml,PHN2ZyB4bWxucz0iaHR0cDovL3d3dy53My5vcmcvMjAwMC9zdmciIGlkPSJzdmc3MzYyIiB2ZXJzaW9uPSIxLjEiIHZpZXdCb3g9IjAgMCA3LjkzNzQ5NjcgNy45Mzc0OTYyIiBoZWlnaHQ9IjcuOTM3NDk2Mm1tIiB3aWR0aD0iNy45Mzc0OTY3bW0iPiYjeGE7ICAmI3hhOyAgICAmI3hhOyAgJiN4YTsgIDxkZWZzIGlkPSJkZWZzNzM1OSIvPiYjeGE7ICA8ZyB0cmFuc2Zvcm09InRyYW5zbGF0ZSgtMy45ODk0MzAzLC0zMy4wNzI5MjEpIiBpZD0ibGF5ZXI1Ij4mI3hhOyAgICA8ZyBpZD0ibGF5ZXI2Ij4mI3hhOyAgICAgIDxjaXJjbGUgcj0iMi42NDU4MzMzIiBjeT0iMzcuMDQxNjY4IiBjeD0iNy45NTgxNzg1IiBpZD0icGF0aDM0NDciIHN0eWxlPSJmaWxsOiNmZmZmZmY7c3Ryb2tlOiMwMDAwMDA7c3Ryb2tlLXdpZHRoOjIuNjQ1ODM7c3Ryb2tlLWxpbmVjYXA6cm91bmQ7c3Ryb2tlLW1pdGVybGltaXQ6NDtzdHJva2UtZGFzaGFycmF5Om5vbmU7cGFpbnQtb3JkZXI6c3Ryb2tlIG1hcmtlcnMgZmlsbDtzdG9wLWNvbG9yOiMwMDAwMDAiLz4mI3hhOyAgICA8L2c+JiN4YTsgIDwvZz4mI3hhOzwvc3ZnPg==;flipH=1;" parent="1" vertex="1">
          <mxGeometry x="-385" y="510" width="30" height="30" as="geometry" />
        </mxCell>
        <mxCell id="sHLZ-SZ676Q3P7wnUCrE-101" value="" style="shape=image;verticalLabelPosition=bottom;verticalAlign=top;imageAspect=0;aspect=fixed;image=data:image/svg+xml,PHN2ZyB4bWxucz0iaHR0cDovL3d3dy53My5vcmcvMjAwMC9zdmciIGlkPSJzdmc3MzYyIiB2ZXJzaW9uPSIxLjEiIHZpZXdCb3g9IjAgMCA3LjkzNzQ5NjcgNy45Mzc0OTYyIiBoZWlnaHQ9IjcuOTM3NDk2Mm1tIiB3aWR0aD0iNy45Mzc0OTY3bW0iPiYjeGE7ICAmI3hhOyAgICAmI3hhOyAgJiN4YTsgIDxkZWZzIGlkPSJkZWZzNzM1OSIvPiYjeGE7ICA8ZyB0cmFuc2Zvcm09InRyYW5zbGF0ZSgtMy45ODk0MzAzLC0zMy4wNzI5MjEpIiBpZD0ibGF5ZXI1Ij4mI3hhOyAgICA8ZyBpZD0ibGF5ZXI2Ij4mI3hhOyAgICAgIDxjaXJjbGUgcj0iMi42NDU4MzMzIiBjeT0iMzcuMDQxNjY4IiBjeD0iNy45NTgxNzg1IiBpZD0icGF0aDM0NDciIHN0eWxlPSJmaWxsOiNmZmZmZmY7c3Ryb2tlOiMwMDAwMDA7c3Ryb2tlLXdpZHRoOjIuNjQ1ODM7c3Ryb2tlLWxpbmVjYXA6cm91bmQ7c3Ryb2tlLW1pdGVybGltaXQ6NDtzdHJva2UtZGFzaGFycmF5Om5vbmU7cGFpbnQtb3JkZXI6c3Ryb2tlIG1hcmtlcnMgZmlsbDtzdG9wLWNvbG9yOiMwMDAwMDAiLz4mI3hhOyAgICA8L2c+JiN4YTsgIDwvZz4mI3hhOzwvc3ZnPg==" parent="1" vertex="1">
          <mxGeometry x="-170" y="355" width="30" height="30" as="geometry" />
        </mxCell>
        <mxCell id="sHLZ-SZ676Q3P7wnUCrE-186" value="" style="shape=image;verticalLabelPosition=bottom;verticalAlign=top;imageAspect=0;aspect=0;image=data:image/svg+xml,PHN2ZyB4bWxucz0iaHR0cDovL3d3dy53My5vcmcvMjAwMC9zdmciIGlkPSJzdmc3MzYyIiB2ZXJzaW9uPSIxLjEiIHZpZXdCb3g9IjAgMCA2LjYxNTEwMDkgNy45Mzc1IiBoZWlnaHQ9IjcuOTM3NW1tIiB3aWR0aD0iNi42MTUxMDA5bW0iPiYjeGE7ICAmI3hhOyAgICAmI3hhOyAgJiN4YTsgIDxkZWZzIGlkPSJkZWZzNzM1OSIvPiYjeGE7ICA8ZyB0cmFuc2Zvcm09InRyYW5zbGF0ZSgtNjAuODUzNjUxLC01Mi45MTYxNDgpIiBpZD0ibGF5ZXI5Ij4mI3hhOyAgICA8cGF0aCBkPSJtIDYwLjg1MzY1LDUyLjkxNjE1IHYgNy45Mzc1IEggNjMuNSBMIDY3LjQ2ODc1LDU2Ljg4NTQxNyA2My41LDUyLjkxNjY2NyB2IC01LjE3ZS00IHoiIHN0eWxlPSJjb2xvcjojMDAwMDAwO2ZpbGw6IzAwMDAwMCIgaWQ9InBhdGgyNTAwLTUtMjItMiIvPiYjeGE7ICA8L2c+JiN4YTs8L3N2Zz4=;points=[[0,0.5,0,0,0],[0.78,0.5,0,0,0],[1,0.5,0,0,0]];rotation=90;" parent="1" vertex="1">
          <mxGeometry x="-720" y="360" width="30" height="30" as="geometry" />
        </mxCell>
        <mxCell id="sHLZ-SZ676Q3P7wnUCrE-187" value="Output" style="text;html=1;align=left;verticalAlign=middle;resizable=0;points=[];autosize=1;strokeColor=none;fillColor=none;" parent="1" vertex="1">
          <mxGeometry x="-680" y="355" width="60" height="30" as="geometry" />
        </mxCell>
        <mxCell id="sHLZ-SZ676Q3P7wnUCrE-192" value="" style="shape=stencil(nVPBbsMgDP0ajkNgjzU7Tun2H6ylC1oKEaFt9vcjMZ2alkzdLC4828/m2TCs+0Z3hoHQfWc2keGaARx1sPq9TTAkT0MgcgWrZBWhJ0JBcvk0GqF9DP7TnOw25izrGhNsHL34ysRLihkP1hvvXCpovetnngt/ItPWpVwxEJmgIl90k3TrEv/eRBNmKIO3u2nl/2mxTsjSU7De+WA+gj+4bbGZnW1bUuyXjjs9annjOLv3/mguFOJzja6GVq7xo80hEJekZMXheRyuypSyyDlAOTrDwFFIEI/KPIi8JANmTQVXFSbLGbiY8be+peLV6qrpUhtQCIfyG7G47eeO71J5WpWFYaZvuLQGU9rNHk0ofd0J+AY=);whiteSpace=wrap;html=1;fillColor=#e3c800;strokeColor=#B09500;strokeWidth=10;rotation=90;fontColor=#000000;" parent="1" vertex="1">
          <mxGeometry x="-462.5" y="267.5" width="40" height="5" as="geometry" />
        </mxCell>
        <mxCell id="sHLZ-SZ676Q3P7wnUCrE-194" value="" style="shape=stencil(nVPBbsMgDP0ajkNgjzU7Tun2H6ylC1oKEaFt9vcjMZ2alkzdLC4828/m2TCs+0Z3hoHQfWc2keGaARx1sPq9TTAkT0MgcgWrZBWhJ0JBcvk0GqF9DP7TnOw25izrGhNsHL34ysRLihkP1hvvXCpovetnngt/ItPWpVwxEJmgIl90k3TrEv/eRBNmKIO3u2nl/2mxTsjSU7De+WA+gj+4bbGZnW1bUuyXjjs9annjOLv3/mguFOJzja6GVq7xo80hEJekZMXheRyuypSyyDlAOTrDwFFIEI/KPIi8JANmTQVXFSbLGbiY8be+peLV6qrpUhtQCIfyG7G47eeO71J5WpWFYaZvuLQGU9rNHk0ofd0J+AY=);whiteSpace=wrap;html=1;fillColor=#0050ef;strokeColor=#001DBC;strokeWidth=10;rotation=90;fontColor=#ffffff;" parent="1" vertex="1">
          <mxGeometry x="-494.25" y="260.75" width="71.5" height="3" as="geometry" />
        </mxCell>
        <mxCell id="sHLZ-SZ676Q3P7wnUCrE-135" value="" style="shape=image;verticalLabelPosition=bottom;verticalAlign=top;imageAspect=0;aspect=0;image=data:image/svg+xml,PHN2ZyB4bWxucz0iaHR0cDovL3d3dy53My5vcmcvMjAwMC9zdmciIGlkPSJzdmc3MzYyIiB2ZXJzaW9uPSIxLjEiIHZpZXdCb3g9IjAgMCA2LjYxNTEwMDkgNy45Mzc1IiBoZWlnaHQ9IjcuOTM3NW1tIiB3aWR0aD0iNi42MTUxMDA5bW0iPiYjeGE7ICAmI3hhOyAgICAmI3hhOyAgJiN4YTsgIDxkZWZzIGlkPSJkZWZzNzM1OSIvPiYjeGE7ICA8ZyB0cmFuc2Zvcm09InRyYW5zbGF0ZSgtNjAuODUzNjUxLC01Mi45MTYxNDgpIiBpZD0ibGF5ZXI5Ij4mI3hhOyAgICA8cGF0aCBkPSJtIDYwLjg1MzY1LDUyLjkxNjE1IHYgNy45Mzc1IEggNjMuNSBMIDY3LjQ2ODc1LDU2Ljg4NTQxNyA2My41LDUyLjkxNjY2NyB2IC01LjE3ZS00IHoiIHN0eWxlPSJjb2xvcjojMDAwMDAwO2ZpbGw6IzAwMDAwMCIgaWQ9InBhdGgyNTAwLTUtMjItMiIvPiYjeGE7ICA8L2c+JiN4YTs8L3N2Zz4=;points=[[0,0.5,0,0,0],[0.78,0.5,0,0,0],[1,0.5,0,0,0]];rotation=90;" parent="1" vertex="1">
          <mxGeometry x="-469.99999999999994" y="290" width="30" height="30" as="geometry" />
        </mxCell>
        <mxCell id="sHLZ-SZ676Q3P7wnUCrE-195" value="&lt;div&gt;&lt;b&gt;Cluster contigs&amp;nbsp;&lt;/b&gt;&lt;/div&gt;&lt;div&gt;&lt;b&gt;&amp;amp; reads&lt;/b&gt;&lt;/div&gt;" style="text;html=1;align=center;verticalAlign=middle;resizable=0;points=[];autosize=1;strokeColor=none;fillColor=none;" parent="1" vertex="1">
          <mxGeometry x="-190" y="285" width="110" height="40" as="geometry" />
        </mxCell>
        <mxCell id="sHLZ-SZ676Q3P7wnUCrE-199" value="" style="endArrow=none;html=1;rounded=0;strokeWidth=10;strokeColor=#005700;fillColor=#008a00;" parent="1" source="sHLZ-SZ676Q3P7wnUCrE-105" target="sHLZ-SZ676Q3P7wnUCrE-205" edge="1">
          <mxGeometry width="50" height="50" relative="1" as="geometry">
            <mxPoint x="-140" y="369.5" as="sourcePoint" />
            <mxPoint x="60" y="370" as="targetPoint" />
          </mxGeometry>
        </mxCell>
        <mxCell id="sHLZ-SZ676Q3P7wnUCrE-205" value="" style="shape=image;verticalLabelPosition=bottom;verticalAlign=top;imageAspect=0;aspect=0;image=data:image/svg+xml,PHN2ZyB4bWxucz0iaHR0cDovL3d3dy53My5vcmcvMjAwMC9zdmciIGlkPSJzdmc3MzYyIiB2ZXJzaW9uPSIxLjEiIHZpZXdCb3g9IjAgMCA2LjYxNTEwMDkgNy45Mzc1IiBoZWlnaHQ9IjcuOTM3NW1tIiB3aWR0aD0iNi42MTUxMDA5bW0iPiYjeGE7ICAmI3hhOyAgICAmI3hhOyAgJiN4YTsgIDxkZWZzIGlkPSJkZWZzNzM1OSIvPiYjeGE7ICA8ZyB0cmFuc2Zvcm09InRyYW5zbGF0ZSgtNjAuODUzNjUxLC01Mi45MTYxNDgpIiBpZD0ibGF5ZXI5Ij4mI3hhOyAgICA8cGF0aCBkPSJtIDYwLjg1MzY1LDUyLjkxNjE1IHYgNy45Mzc1IEggNjMuNSBMIDY3LjQ2ODc1LDU2Ljg4NTQxNyA2My41LDUyLjkxNjY2NyB2IC01LjE3ZS00IHoiIHN0eWxlPSJjb2xvcjojMDAwMDAwO2ZpbGw6IzAwMDAwMCIgaWQ9InBhdGgyNTAwLTUtMjItMiIvPiYjeGE7ICA8L2c+JiN4YTs8L3N2Zz4=;points=[[0,0.5,0,0,0],[0.78,0.5,0,0,0],[1,0.5,0,0,0]];" parent="1" vertex="1">
          <mxGeometry x="40" y="355" width="25" height="30" as="geometry" />
        </mxCell>
        <mxCell id="sHLZ-SZ676Q3P7wnUCrE-208" value="&lt;b&gt;Taxonomic&lt;/b&gt;&lt;div&gt;&lt;b&gt;classification&lt;/b&gt;&lt;/div&gt;" style="text;html=1;align=center;verticalAlign=middle;resizable=0;points=[];autosize=1;strokeColor=none;fillColor=none;" parent="1" vertex="1">
          <mxGeometry x="-55" y="385" width="100" height="40" as="geometry" />
        </mxCell>
        <mxCell id="sHLZ-SZ676Q3P7wnUCrE-209" value="" style="endArrow=none;html=1;rounded=0;strokeWidth=10;strokeColor=#005700;fillColor=#008a00;" parent="1" target="sHLZ-SZ676Q3P7wnUCrE-105" edge="1">
          <mxGeometry width="50" height="50" relative="1" as="geometry">
            <mxPoint x="-140" y="369.5" as="sourcePoint" />
            <mxPoint x="55" y="370" as="targetPoint" />
          </mxGeometry>
        </mxCell>
        <mxCell id="sHLZ-SZ676Q3P7wnUCrE-105" value="" style="shape=image;verticalLabelPosition=bottom;verticalAlign=top;imageAspect=0;aspect=fixed;image=data:image/svg+xml,PHN2ZyB4bWxucz0iaHR0cDovL3d3dy53My5vcmcvMjAwMC9zdmciIGlkPSJzdmc3MzYyIiB2ZXJzaW9uPSIxLjEiIHZpZXdCb3g9IjAgMCA3LjkzNzQ5ODEgNy45Mzc1IiBoZWlnaHQ9IjcuOTM3NW1tIiB3aWR0aD0iNy45Mzc0OTgxbW0iPiYjeGE7ICAmI3hhOyAgICAmI3hhOyAgJiN4YTsgIDxkZWZzIGlkPSJkZWZzNzM1OSIvPiYjeGE7ICA8ZyB0cmFuc2Zvcm09InRyYW5zbGF0ZSgtMy45ODk0Mjk4LC02Mi4xNzcwODQpIiBpZD0ibGF5ZXI1Ij4mI3hhOyAgICA8ZyBpZD0ibGF5ZXI3Ij4mI3hhOyAgICAgIDxyZWN0IHJ5PSIwLjc5Mzc0ODc0IiB5PSI2My41IiB4PSI1LjMxMjM0NDYiIGhlaWdodD0iNS4yOTE2NjU2IiB3aWR0aD0iNS4yOTE2Njc5IiBpZD0icmVjdDkxOC05LTciIHN0eWxlPSJmaWxsOiNmZmZmZmY7c3Ryb2tlOiMwMDAwMDA7c3Ryb2tlLXdpZHRoOjIuNjQ1ODM7c3Ryb2tlLWxpbmVjYXA6cm91bmQ7cGFpbnQtb3JkZXI6c3Ryb2tlIG1hcmtlcnMgZmlsbDtzdG9wLWNvbG9yOiMwMDAwMDAiLz4mI3hhOyAgICA8L2c+JiN4YTsgIDwvZz4mI3hhOzwvc3ZnPg==;rotation=-45;" parent="1" vertex="1">
          <mxGeometry x="-30" y="355" width="30" height="30" as="geometry" />
        </mxCell>
        <mxCell id="sHLZ-SZ676Q3P7wnUCrE-84" value="Dragonflye" style="text;html=1;align=center;verticalAlign=middle;resizable=0;points=[];autosize=1;strokeColor=none;fillColor=none;" parent="1" vertex="1">
          <mxGeometry x="-375" y="245" width="80" height="30" as="geometry" />
        </mxCell>
        <mxCell id="sHLZ-SZ676Q3P7wnUCrE-13" value="" style="shape=image;verticalLabelPosition=bottom;verticalAlign=top;imageAspect=0;aspect=fixed;image=data:image/svg+xml,PHN2ZyB4bWxucz0iaHR0cDovL3d3dy53My5vcmcvMjAwMC9zdmciIGlkPSJzdmc3MzYyIiB2ZXJzaW9uPSIxLjEiIHZpZXdCb3g9IjAgMCA3LjkzNzQ5NjIgMTUuODc1IiBoZWlnaHQ9IjE1Ljg3NW1tIiB3aWR0aD0iNy45Mzc0OTYybW0iPiYjeGE7ICAmI3hhOyAgICAmI3hhOyAgJiN4YTsgIDxkZWZzIGlkPSJkZWZzNzM1OSIvPiYjeGE7ICA8ZyB0cmFuc2Zvcm09InRyYW5zbGF0ZSgtMjIuNDg5NTg2LC05My45MjcwODMpIiBpZD0ibGF5ZXI1Ij4mI3hhOyAgICA8ZyBpZD0ibGF5ZXI4Ij4mI3hhOyAgICAgIDxwYXRoIGQ9Im0gMjYuNDU4MzMzLDk1LjI1IGEgMi42NDU4MzMzLDIuNjQ1ODMzMyAwIDAgMCAtMi42NDU4MzMsMi42NDU4MzMgMi42NDU4MzMzLDIuNjQ1ODMzMyAwIDAgMCAxLjMyMjkxNywyLjI5MTMzNyB2IDMuMzU0ODMgYSAyLjY0NTgzMzMsMi42NDU4MzMzIDAgMCAwIC0xLjMyMjkxNywyLjI5MTMzIDIuNjQ1ODMzMywyLjY0NTgzMzMgMCAwIDAgMi42NDU4MzMsMi42NDU4NCAyLjY0NTgzMzMsMi42NDU4MzMzIDAgMCAwIDIuNjQ1ODM0LC0yLjY0NTg0IDIuNjQ1ODMzMywyLjY0NTgzMzMgMCAwIDAgLTEuMzIyOTE3LC0yLjI5MTMzIHYgLTMuMzU0ODMgQSAyLjY0NTgzMzMsMi42NDU4MzMzIDAgMCAwIDI5LjEwNDE2Nyw5Ny44OTU4MzMgMi42NDU4MzMzLDIuNjQ1ODMzMyAwIDAgMCAyNi40NTgzMzMsOTUuMjUgWiIgc3R5bGU9ImZpbGw6I2ZmZmZmZjtzdHJva2U6IzAwMDAwMDtzdHJva2Utd2lkdGg6Mi42NDU4MztzdHJva2UtbGluZWNhcDpyb3VuZDtzdHJva2UtbWl0ZXJsaW1pdDo0O3N0cm9rZS1kYXNoYXJyYXk6bm9uZTtwYWludC1vcmRlcjpzdHJva2UgbWFya2VycyBmaWxsO3N0b3AtY29sb3I6IzAwMDAwMCIgaWQ9InBhdGgzNDQ3LTYtMjUiLz4mI3hhOyAgICA8L2c+JiN4YTsgIDwvZz4mI3hhOzwvc3ZnPg==;points=[[0.1,0.25,0,0,0],[0.1,0.75,0,0,0],[0.5,0,0,0,0],[0.5,1,0,0,0],[0.9,0.25,0,0,0],[0.9,0.75,0,0,0]];" parent="1" vertex="1">
          <mxGeometry x="-480" y="180" width="30" height="60" as="geometry" />
        </mxCell>
      </root>
    </mxGraphModel>
  </diagram>
</mxfile>
